<svg xmlns="http://www.w3.org/2000/svg" viewBox="0 0 576 288"><g id="10c" fill="none" fill-rule="evenodd"><g transform="translate(4 4)"><g id="illustrasjoner-bruksendring" transform="rotate(-90 140 139.5)"><g id="Group-809" transform="translate(0 287)"><polygon id="Fill-806" fill="#F2F1F0" points="278.979 279.547 278.979 .59 .021 .59 .021 279.547"/><polygon id="Stroke-808" stroke="#072938" stroke-linecap="round" stroke-linejoin="round" stroke-width="8" points="278.979 279.547 278.979 .59 .021 .59 .021 279.547"/></g><g id="Group-832"><path id="Fill-810" fill="#FFFFFF" d="M176.93 439.38a12.82 12.82 0 1 1 0-25.65 12.82 12.82 0 0 1 0 25.65"/><path id="Stroke-812" stroke="#072938" stroke-linecap="round" stroke-linejoin="round" stroke-width="8" d="M176.93 439.38a12.82 12.82 0 1 1 0-25.65 12.82 12.82 0 0 1 0 25.65z"/><path id="Fill-813" fill="#FFFFFF" d="M177.45 460.37a35.48 35.48 0 0 0 0-67.63v67.63z"/><path id="Stroke-814" stroke="#072938" stroke-linecap="round" stroke-linejoin="round" stroke-width="8" d="M177.45 460.37a35.48 35.48 0 0 0 0-67.63v67.63z"/><g id="Group-817" transform="translate(202 427)"><path id="Fill-815" fill="#FFFFFF" d="M76.98.07H.06"/><path id="Stroke-816" stroke="#072938" stroke-linecap="round" stroke-linejoin="round" stroke-width="8" d="M76.98.07H.06"/></g><path id="Stroke-818" stroke="#072938" stroke-linecap="round" stroke-linejoin="round" stroke-width="8" d="M110.65 323.05l-41.16 7.3a12.1 12.1 0 0 0-9.99 11.91v48.91"/><path id="Stroke-819" stroke="#072938" stroke-linecap="round" stroke-linejoin="round" stroke-width="8" d="M59.5 346.44L.47 331.71"/><path id="Stroke-820" stroke="#072938" stroke-linecap="round" stroke-linejoin="round" stroke-width="8" d="M59.5 373.83L.47 388.56"/><path id="Stroke-821" stroke="#072938" stroke-linecap="round" stroke-linejoin="round" stroke-width="8" d="M110.65 530.06l-41.16-7.3a12.1 12.1 0 0 1-9.99-11.91v-48.91"/><path id="Stroke-822" stroke="#072938" stroke-linecap="round" stroke-linejoin="round" stroke-width="8" d="M59.5 506.67L.47 521.4"/><path id="Stroke-823" stroke="#072938" stroke-linecap="round" stroke-linejoin="round" stroke-width="8" d="M59.5 479.28L.47 464.55"/><path id="Stroke-824" stroke="#072938" stroke-linecap="round" stroke-linejoin="round" stroke-width="8" d="M95.4 452.39L.47 398.33"/><path id="Stroke-825" stroke="#072938" stroke-linecap="round" stroke-linejoin="round" stroke-width="8" d="M95.4 400.72L.47 454.78"/><path id="Stroke-826" stroke="#072938" stroke-linecap="round" stroke-linejoin="round" stroke-width="8" d="M95.4 367.58v117.95"/><path id="Stroke-827" stroke="#072938" stroke-linecap="round" stroke-linejoin="round" stroke-width="8" d="M29.76 339.02v42.18"/><path id="Stroke-828" stroke="#072938" stroke-linecap="round" stroke-linejoin="round" stroke-width="8" d="M29.76 471.86v42.18"/><g id="Group-831"><polygon id="Fill-829" fill="#ECF2F6" points="278.979 279.385 278.979 .428 .021 .428 .021 279.385"/><polygon id="Stroke-830" stroke="#329DE7" stroke-linecap="round" stroke-linejoin="round" stroke-width="8" points="278.979 279.385 278.979 .428 .021 .428 .021 279.385"/></g></g></g><text id="Ved-siden-av-hovedde" fill="#329DE7" font-family="OpenSans-Semibold, Open Sans" font-size="24.61" font-weight="500"><tspan x="83.14" y="127">Ved siden </tspan> <tspan x="68.96" y="160">av hoveddel</tspan></text></g></g></svg>