<svg xmlns="http://www.w3.org/2000/svg" viewBox="0 0 288 576"><g id="10d" fill="none" fill-rule="evenodd"><g transform="translate(4 4)"><g id="illustrasjoner-bruksendring" transform="rotate(-90 284 283.5)"><polygon id="Fill-838" fill="#F2F1F0" points="566.56 278.991 566.56 .034 287.602 .034 287.602 278.991"/><g id="Group-862"><polygon id="Stroke-840" stroke="#072938" stroke-linecap="round" stroke-linejoin="round" stroke-width="8" points="287.602 .034 566.56 .034 566.56 278.992 287.602 278.992"/><path id="Fill-842" fill="#FFFFFF" d="M464.51 151.82a12.82 12.82 0 1 1 0-25.64 12.82 12.82 0 0 1 0 25.64"/><path id="Stroke-844" stroke="#072938" stroke-linecap="round" stroke-linejoin="round" stroke-width="8" d="M464.51 151.82a12.82 12.82 0 1 1 0-25.64 12.82 12.82 0 0 1 0 25.64z"/><path id="Fill-845" fill="#FFFFFF" d="M465.03 172.81a35.48 35.48 0 0 0 0-67.62v67.62z"/><path id="Stroke-846" stroke="#072938" stroke-linecap="round" stroke-linejoin="round" stroke-width="8" d="M465.03 172.81a35.48 35.48 0 0 0 0-67.62v67.62z"/><path id="Stroke-847" stroke="#072938" stroke-linecap="round" stroke-linejoin="round" stroke-width="8" d="M566.56 139.51h-76.92"/><path id="Stroke-848" stroke="#072938" stroke-linecap="round" stroke-linejoin="round" stroke-width="8" d="M398.23 35.5l-41.15 7.3a12.1 12.1 0 0 0-10 11.9v48.92"/><path id="Stroke-849" stroke="#072938" stroke-linecap="round" stroke-linejoin="round" stroke-width="8" d="M347.09 58.89l-59.04-14.73"/><path id="Stroke-850" stroke="#072938" stroke-linecap="round" stroke-linejoin="round" stroke-width="8" d="M347.09 86.28L288.05 101"/><path id="Stroke-851" stroke="#072938" stroke-linecap="round" stroke-linejoin="round" stroke-width="8" d="M398.23 242.5l-41.15-7.3a12.1 12.1 0 0 1-10-11.9v-48.92"/><path id="Stroke-852" stroke="#072938" stroke-linecap="round" stroke-linejoin="round" stroke-width="8" d="M347.09 219.11l-59.04 14.73"/><path id="Stroke-853" stroke="#072938" stroke-linecap="round" stroke-linejoin="round" stroke-width="8" d="M347.09 191.72L288.05 177"/><path id="Stroke-854" stroke="#072938" stroke-linecap="round" stroke-linejoin="round" stroke-width="8" d="M382.98 164.83l-94.93-54.05"/><path id="Stroke-855" stroke="#072938" stroke-linecap="round" stroke-linejoin="round" stroke-width="8" d="M382.98 113.17l-94.93 54.05"/><path id="Stroke-856" stroke="#072938" stroke-linecap="round" stroke-linejoin="round" stroke-width="8" d="M382.98 80.03v117.94"/><path id="Stroke-857" stroke="#072938" stroke-linecap="round" stroke-linejoin="round" stroke-width="8" d="M317.34 51.47v42.17"/><path id="Stroke-858" stroke="#072938" stroke-linecap="round" stroke-linejoin="round" stroke-width="8" d="M317.34 184.3v42.18"/><g id="Group-861"><polygon id="Fill-859" fill="#ECF2F6" points="279.398 278.992 279.398 .034 .44 .034 .44 278.992"/><polygon id="Stroke-860" stroke="#329DE7" stroke-linecap="round" stroke-linejoin="round" stroke-width="8" points="279.398 278.992 279.398 .034 .44 .034 .44 278.992"/></g></g></g><text id="Under-hoveddel" fill="#329DE7" font-family="OpenSans-Semibold, Open Sans" font-size="24.61" font-weight="500"><tspan x="102.49" y="418">Under </tspan> <tspan x="84.88" y="451">hoveddel</tspan></text></g></g></svg>