<svg xmlns="http://www.w3.org/2000/svg" xmlns:xlink="http://www.w3.org/1999/xlink" viewBox="0 0 829 543"><defs><polygon id="path-1" points=".338 842 .338 0 574.662 0 574.662 842"/></defs><g id="13a" fill="none" fill-rule="evenodd"><g transform="rotate(-90 273 279.5)"><g id="Group-1016" stroke-linecap="round" stroke-linejoin="round" stroke-width="8" transform="translate(14 10)"><path id="Stroke-890" stroke="#D7D4D1" d="M.01 363.6l145.66-145.66"/><path id="Stroke-892" stroke="#D7D4D1" d="M.01 363.6l145.66-145.66"/><path id="Stroke-894" stroke="#D7D4D1" d="M.01 394.36L145.67 248.7"/><path id="Stroke-896" stroke="#D7D4D1" d="M.01 394.36L145.67 248.7"/><path id="Stroke-898" stroke="#D7D4D1" d="M.01 394.36L145.67 248.7"/><path id="Stroke-900" stroke="#D7D4D1" d="M.01 394.36L145.67 248.7"/><path id="Stroke-902" stroke="#D7D4D1" d="M.01 425.13l145.66-145.66"/><path id="Stroke-904" stroke="#D7D4D1" d="M.01 425.13l145.66-145.66"/><path id="Stroke-906" stroke="#D7D4D1" d="M.01 455.9l145.66-145.66"/><path id="Stroke-908" stroke="#D7D4D1" d="M.01 455.9l145.66-145.66"/><path id="Stroke-910" stroke="#D7D4D1" d="M.01 486.66L145.67 341"/><path id="Stroke-912" stroke="#D7D4D1" d="M.01 486.66L145.67 341"/><path id="Stroke-914" stroke="#D7D4D1" d="M.01 517.43l145.66-145.66"/><path id="Stroke-916" stroke="#D7D4D1" d="M.01 517.43l145.66-145.66"/><path id="Stroke-918" stroke="#D7D4D1" d="M.01 548.2l145.66-145.66"/><path id="Stroke-920" stroke="#D7D4D1" d="M.01 548.2l145.66-145.66"/><path id="Stroke-922" stroke="#D7D4D1" d="M.01 578.97L145.67 433.3"/><path id="Stroke-924" stroke="#D7D4D1" d="M.01 578.97L145.67 433.3"/><path id="Stroke-926" stroke="#D7D4D1" d="M.01 609.73l145.66-145.66"/><path id="Stroke-928" stroke="#D7D4D1" d="M.01 609.73l145.66-145.66"/><path id="Stroke-930" stroke="#D7D4D1" d="M.01 640.5l145.66-145.66"/><path id="Stroke-932" stroke="#D7D4D1" d="M.01 640.5l145.66-145.66"/><path id="Stroke-934" stroke="#D7D4D1" d="M.01 671.27L145.67 525.6"/><path id="Stroke-936" stroke="#D7D4D1" d="M.01 671.27L145.67 525.6"/><path id="Stroke-938" stroke="#D7D4D1" d="M.01 702.04l145.66-145.66"/><path id="Stroke-940" stroke="#D7D4D1" d="M.01 702.04l145.66-145.66"/><path id="Stroke-942" stroke="#D7D4D1" d="M.01 732.8l145.66-145.66"/><path id="Stroke-944" stroke="#D7D4D1" d="M.01 732.8l145.66-145.66"/><path id="Stroke-946" stroke="#D7D4D1" d="M.01 763.57l145.66-145.66"/><path id="Stroke-948" stroke="#D7D4D1" d="M.01 763.57l145.66-145.66"/><path id="Stroke-950" stroke="#D7D4D1" d="M.01 794.34l145.66-145.66"/><path id="Stroke-952" stroke="#D7D4D1" d="M.01 794.34l145.66-145.66"/><path id="Stroke-954" stroke="#D7D4D1" d="M3.89 821.23l141.78-141.78"/><path id="Stroke-956" stroke="#D7D4D1" d="M34.75 821.13l110.92-110.92"/><path id="Stroke-958" stroke="#D7D4D1" d="M34.75 821.13l110.92-110.92"/><path id="Stroke-960" stroke="#D7D4D1" d="M65.43 821.23l80.24-80.25"/><path id="Stroke-962" stroke="#D7D4D1" d="M65.43 821.23l80.24-80.25"/><path id="Stroke-964" stroke="#D7D4D1" d="M96.2 821.22l49.47-49.47"/><path id="Stroke-966" stroke="#D7D4D1" d="M96.2 821.22l49.47-49.47"/><path id="Stroke-968" stroke="#D7D4D1" d="M126.97 821.22l18.7-18.7"/><path id="Stroke-970" stroke="#D7D4D1" d="M126.97 821.22l18.7-18.7"/><path id="Stroke-972" stroke="#D7D4D1" d="M.01 332.83l145.66-145.66"/><path id="Stroke-974" stroke="#D7D4D1" d="M.01 332.83l145.66-145.66"/><path id="Stroke-976" stroke="#D7D4D1" d="M.01 302.06L145.67 156.4"/><path id="Stroke-978" stroke="#D7D4D1" d="M.01 302.06L145.67 156.4"/><path id="Stroke-980" stroke="#D7D4D1" d="M.01 271.3l145.66-145.67"/><path id="Stroke-982" stroke="#D7D4D1" d="M.01 271.3l145.66-145.67"/><path id="Stroke-984" stroke="#D7D4D1" d="M.01 240.53L145.67 94.87"/><path id="Stroke-986" stroke="#D7D4D1" d="M.01 240.53L145.67 94.87"/><path id="Stroke-988" stroke="#D7D4D1" d="M.01 209.76L145.67 64.1"/><path id="Stroke-990" stroke="#D7D4D1" d="M.01 209.76L145.67 64.1"/><path id="Stroke-992" stroke="#D7D4D1" d="M.01 179L145.67 33.32"/><path id="Stroke-994" stroke="#D7D4D1" d="M.01 179L145.67 33.32"/><path id="Stroke-996" stroke="#D7D4D1" d="M.01 148.22L145.67 2.56"/><path id="Stroke-998" stroke="#D7D4D1" d="M.01 148.22L145.67 2.56"/><path id="Stroke-1000" stroke="#D7D4D1" d="M.01 117.46L114.62 2.85"/><path id="Stroke-1002" stroke="#D7D4D1" d="M.01 117.46L114.62 2.85"/><path id="Stroke-1004" stroke="#D7D4D1" d="M.01 86.69L83.9 2.8"/><path id="Stroke-1006" stroke="#D7D4D1" d="M.01 86.69L83.9 2.8"/><path id="Stroke-1008" stroke="#D7D4D1" d="M.01 55.92l53.1-53.1"/><path id="Stroke-1010" stroke="#D7D4D1" d="M.01 25.15l22.3-22.3"/><path id="Stroke-1012" stroke="#D7D4D1" d="M.01 25.15l22.3-22.3"/><path id="Stroke-1014" stroke="#072938" d="M145.7.77v820.46"/></g><g id="Group-1028"><g id="Group-1020" transform="translate(232 183)"><polygon id="Fill-1017" fill="#FFFFFF" points=".119 .921 .119 474.054 153.956 474.054 153.956 .921"/><polygon id="Stroke-1019" stroke="#072938" stroke-linecap="round" stroke-linejoin="round" stroke-width="8" points=".119 .921 .119 474.054 153.956 474.054 153.956 .921"/></g><g id="Group-1024" transform="translate(70 183)"><polygon id="Fill-1021" fill="#ECF2F6" points=".077 .921 .077 474.054 153.914 474.054 153.914 .921"/><polygon id="Stroke-1023" stroke="#329DE7" stroke-linecap="round" stroke-linejoin="round" stroke-width="8" points=".077 .921 .077 474.054 153.914 474.054 153.914 .921"/></g><mask id="mask-2" fill="white"><use xlink:href="#path-1"/></mask><polygon id="Fill-1025" fill="#ECF2F6" points="547.997 420.487 453.018 183.921 394.16 183.921 394.16 657.053 453.018 657.053" mask="url(#mask-2)"/><polygon id="Stroke-1027" stroke="#329DE7" stroke-linecap="round" stroke-linejoin="round" stroke-width="8" points="547.997 420.487 453.018 183.921 394.16 183.921 394.16 657.053 453.018 657.053" mask="url(#mask-2)"/></g></g></g></svg>