<svg xmlns="http://www.w3.org/2000/svg" xmlns:xlink="http://www.w3.org/1999/xlink" viewBox="0 0 829 542"><defs><polygon id="path-1" points=".338 842 .338 0 574.662 0 574.662 842"/></defs><g id="13b" fill="none" fill-rule="evenodd"><g transform="rotate(-90 272.5 279)"><g id="Group-1156" stroke-linecap="round" stroke-linejoin="round" stroke-width="8" transform="translate(14 10)"><path id="Stroke-1030" stroke="#D7D4D1" d="M.01 363.6l145.66-145.66"/><path id="Stroke-1032" stroke="#D7D4D1" d="M.01 363.6l145.66-145.66"/><path id="Stroke-1034" stroke="#D7D4D1" d="M.01 394.36L145.67 248.7"/><path id="Stroke-1036" stroke="#D7D4D1" d="M.01 394.36L145.67 248.7"/><path id="Stroke-1038" stroke="#D7D4D1" d="M.01 394.36L145.67 248.7"/><path id="Stroke-1040" stroke="#D7D4D1" d="M.01 394.36L145.67 248.7"/><path id="Stroke-1042" stroke="#D7D4D1" d="M.01 425.13l145.66-145.66"/><path id="Stroke-1044" stroke="#D7D4D1" d="M.01 425.13l145.66-145.66"/><path id="Stroke-1046" stroke="#D7D4D1" d="M.01 455.9l145.66-145.66"/><path id="Stroke-1048" stroke="#D7D4D1" d="M.01 455.9l145.66-145.66"/><path id="Stroke-1050" stroke="#D7D4D1" d="M.01 486.66L145.67 341"/><path id="Stroke-1052" stroke="#D7D4D1" d="M.01 486.66L145.67 341"/><path id="Stroke-1054" stroke="#D7D4D1" d="M.01 517.43l145.66-145.66"/><path id="Stroke-1056" stroke="#D7D4D1" d="M.01 517.43l145.66-145.66"/><path id="Stroke-1058" stroke="#D7D4D1" d="M.01 548.2l145.66-145.66"/><path id="Stroke-1060" stroke="#D7D4D1" d="M.01 548.2l145.66-145.66"/><path id="Stroke-1062" stroke="#D7D4D1" d="M.01 578.97L145.67 433.3"/><path id="Stroke-1064" stroke="#D7D4D1" d="M.01 578.97L145.67 433.3"/><path id="Stroke-1066" stroke="#D7D4D1" d="M.01 609.73l145.66-145.66"/><path id="Stroke-1068" stroke="#D7D4D1" d="M.01 609.73l145.66-145.66"/><path id="Stroke-1070" stroke="#D7D4D1" d="M.01 640.5l145.66-145.66"/><path id="Stroke-1072" stroke="#D7D4D1" d="M.01 640.5l145.66-145.66"/><path id="Stroke-1074" stroke="#D7D4D1" d="M.01 671.27L145.67 525.6"/><path id="Stroke-1076" stroke="#D7D4D1" d="M.01 671.27L145.67 525.6"/><path id="Stroke-1078" stroke="#D7D4D1" d="M.01 702.04l145.66-145.66"/><path id="Stroke-1080" stroke="#D7D4D1" d="M.01 702.04l145.66-145.66"/><path id="Stroke-1082" stroke="#D7D4D1" d="M.01 732.8l145.66-145.66"/><path id="Stroke-1084" stroke="#D7D4D1" d="M.01 732.8l145.66-145.66"/><path id="Stroke-1086" stroke="#D7D4D1" d="M.01 763.57l145.66-145.66"/><path id="Stroke-1088" stroke="#D7D4D1" d="M.01 763.57l145.66-145.66"/><path id="Stroke-1090" stroke="#D7D4D1" d="M.01 794.34l145.66-145.66"/><path id="Stroke-1092" stroke="#D7D4D1" d="M.01 794.34l145.66-145.66"/><path id="Stroke-1094" stroke="#D7D4D1" d="M3.89 821.23l141.78-141.78"/><path id="Stroke-1096" stroke="#D7D4D1" d="M34.75 821.13l110.92-110.92"/><path id="Stroke-1098" stroke="#D7D4D1" d="M34.75 821.13l110.92-110.92"/><path id="Stroke-1100" stroke="#D7D4D1" d="M65.43 821.23l80.24-80.25"/><path id="Stroke-1102" stroke="#D7D4D1" d="M65.43 821.23l80.24-80.25"/><path id="Stroke-1104" stroke="#D7D4D1" d="M96.2 821.22l49.47-49.47"/><path id="Stroke-1106" stroke="#D7D4D1" d="M96.2 821.22l49.47-49.47"/><path id="Stroke-1108" stroke="#D7D4D1" d="M126.97 821.22l18.7-18.7"/><path id="Stroke-1110" stroke="#D7D4D1" d="M126.97 821.22l18.7-18.7"/><path id="Stroke-1112" stroke="#D7D4D1" d="M.01 332.83l145.66-145.66"/><path id="Stroke-1114" stroke="#D7D4D1" d="M.01 332.83l145.66-145.66"/><path id="Stroke-1116" stroke="#D7D4D1" d="M.01 302.06L145.67 156.4"/><path id="Stroke-1118" stroke="#D7D4D1" d="M.01 302.06L145.67 156.4"/><path id="Stroke-1120" stroke="#D7D4D1" d="M.01 271.3l145.66-145.67"/><path id="Stroke-1122" stroke="#D7D4D1" d="M.01 271.3l145.66-145.67"/><path id="Stroke-1124" stroke="#D7D4D1" d="M.01 240.53L145.67 94.87"/><path id="Stroke-1126" stroke="#D7D4D1" d="M.01 240.53L145.67 94.87"/><path id="Stroke-1128" stroke="#D7D4D1" d="M.01 209.76L145.67 64.1"/><path id="Stroke-1130" stroke="#D7D4D1" d="M.01 209.76L145.67 64.1"/><path id="Stroke-1132" stroke="#D7D4D1" d="M.01 179L145.67 33.32"/><path id="Stroke-1134" stroke="#D7D4D1" d="M.01 179L145.67 33.32"/><path id="Stroke-1136" stroke="#D7D4D1" d="M.01 148.22L145.67 2.56"/><path id="Stroke-1138" stroke="#D7D4D1" d="M.01 148.22L145.67 2.56"/><path id="Stroke-1140" stroke="#D7D4D1" d="M.01 117.46L114.62 2.85"/><path id="Stroke-1142" stroke="#D7D4D1" d="M.01 117.46L114.62 2.85"/><path id="Stroke-1144" stroke="#D7D4D1" d="M.01 86.69L83.9 2.8"/><path id="Stroke-1146" stroke="#D7D4D1" d="M.01 86.69L83.9 2.8"/><path id="Stroke-1148" stroke="#D7D4D1" d="M.01 55.92l53.1-53.1"/><path id="Stroke-1150" stroke="#D7D4D1" d="M.01 25.15l22.3-22.3"/><path id="Stroke-1152" stroke="#D7D4D1" d="M.01 25.15l22.3-22.3"/><path id="Stroke-1154" stroke="#072938" d="M145.7.77v820.46"/></g><g id="Group-1168"><g id="Group-1160" transform="translate(229 183)"><polygon id="Fill-1157" fill="#FFFFFF" points=".042 .921 .042 474.054 159.007 474.054 159.007 .921"/><polygon id="Stroke-1159" stroke="#072938" stroke-linecap="round" stroke-linejoin="round" stroke-width="8" points=".042 .921 .042 474.054 159.007 474.054 159.007 .921"/></g><g id="Group-1164" transform="translate(70 183)"><polygon id="Fill-1161" fill="#ECF2F6" points=".077 .921 .077 474.054 159.042 474.054 159.042 .921"/><polygon id="Stroke-1163" stroke="#329DE7" stroke-linecap="round" stroke-linejoin="round" stroke-width="8" points=".077 .921 .077 474.054 159.042 474.054 159.042 .921"/></g><mask id="mask-2" fill="white"><use xlink:href="#path-1"/></mask><polygon id="Fill-1165" fill="#ECF2F6" points="546.971 420.487 451.993 183.921 388.007 183.921 388.007 657.053 451.993 657.053" mask="url(#mask-2)"/><polygon id="Stroke-1167" stroke="#329DE7" stroke-linecap="round" stroke-linejoin="round" stroke-width="8" points="546.971 420.487 451.993 183.921 388.007 183.921 388.007 657.053 451.993 657.053" mask="url(#mask-2)"/></g></g></g></svg>