<svg xmlns="http://www.w3.org/2000/svg" xmlns:xlink="http://www.w3.org/1999/xlink" viewBox="0 0 829 542"><defs><polygon id="path-1" points=".338 842 .338 0 574.662 0 574.662 842"/></defs><g id="13c" fill="none" fill-rule="evenodd"><g transform="rotate(-90 272.5 279)"><g id="Group-1296" stroke-linecap="round" stroke-linejoin="round" stroke-width="8" transform="translate(14 10)"><path id="Stroke-1170" stroke="#D7D4D1" d="M.01 363.6l145.66-145.66"/><path id="Stroke-1172" stroke="#D7D4D1" d="M.01 363.6l145.66-145.66"/><path id="Stroke-1174" stroke="#D7D4D1" d="M.01 394.36L145.67 248.7"/><path id="Stroke-1176" stroke="#D7D4D1" d="M.01 394.36L145.67 248.7"/><path id="Stroke-1178" stroke="#D7D4D1" d="M.01 394.36L145.67 248.7"/><path id="Stroke-1180" stroke="#D7D4D1" d="M.01 394.36L145.67 248.7"/><path id="Stroke-1182" stroke="#D7D4D1" d="M.01 425.13l145.66-145.66"/><path id="Stroke-1184" stroke="#D7D4D1" d="M.01 425.13l145.66-145.66"/><path id="Stroke-1186" stroke="#D7D4D1" d="M.01 455.9l145.66-145.66"/><path id="Stroke-1188" stroke="#D7D4D1" d="M.01 455.9l145.66-145.66"/><path id="Stroke-1190" stroke="#D7D4D1" d="M.01 486.66L145.67 341"/><path id="Stroke-1192" stroke="#D7D4D1" d="M.01 486.66L145.67 341"/><path id="Stroke-1194" stroke="#D7D4D1" d="M.01 517.43l145.66-145.66"/><path id="Stroke-1196" stroke="#D7D4D1" d="M.01 517.43l145.66-145.66"/><path id="Stroke-1198" stroke="#D7D4D1" d="M.01 548.2l145.66-145.66"/><path id="Stroke-1200" stroke="#D7D4D1" d="M.01 548.2l145.66-145.66"/><path id="Stroke-1202" stroke="#D7D4D1" d="M.01 578.97L145.67 433.3"/><path id="Stroke-1204" stroke="#D7D4D1" d="M.01 578.97L145.67 433.3"/><path id="Stroke-1206" stroke="#D7D4D1" d="M.01 609.73l145.66-145.66"/><path id="Stroke-1208" stroke="#D7D4D1" d="M.01 609.73l145.66-145.66"/><path id="Stroke-1210" stroke="#D7D4D1" d="M.01 640.5l145.66-145.66"/><path id="Stroke-1212" stroke="#D7D4D1" d="M.01 640.5l145.66-145.66"/><path id="Stroke-1214" stroke="#D7D4D1" d="M.01 671.27L145.67 525.6"/><path id="Stroke-1216" stroke="#D7D4D1" d="M.01 671.27L145.67 525.6"/><path id="Stroke-1218" stroke="#D7D4D1" d="M.01 702.04l145.66-145.66"/><path id="Stroke-1220" stroke="#D7D4D1" d="M.01 702.04l145.66-145.66"/><path id="Stroke-1222" stroke="#D7D4D1" d="M.01 732.8l145.66-145.66"/><path id="Stroke-1224" stroke="#D7D4D1" d="M.01 732.8l145.66-145.66"/><path id="Stroke-1226" stroke="#D7D4D1" d="M.01 763.57l145.66-145.66"/><path id="Stroke-1228" stroke="#D7D4D1" d="M.01 763.57l145.66-145.66"/><path id="Stroke-1230" stroke="#D7D4D1" d="M.01 794.34l145.66-145.66"/><path id="Stroke-1232" stroke="#D7D4D1" d="M.01 794.34l145.66-145.66"/><path id="Stroke-1234" stroke="#D7D4D1" d="M3.89 821.23l141.78-141.78"/><path id="Stroke-1236" stroke="#D7D4D1" d="M34.75 821.13l110.92-110.92"/><path id="Stroke-1238" stroke="#D7D4D1" d="M34.75 821.13l110.92-110.92"/><path id="Stroke-1240" stroke="#D7D4D1" d="M65.43 821.23l80.24-80.25"/><path id="Stroke-1242" stroke="#D7D4D1" d="M65.43 821.23l80.24-80.25"/><path id="Stroke-1244" stroke="#D7D4D1" d="M96.2 821.22l49.47-49.47"/><path id="Stroke-1246" stroke="#D7D4D1" d="M96.2 821.22l49.47-49.47"/><path id="Stroke-1248" stroke="#D7D4D1" d="M126.97 821.22l18.7-18.7"/><path id="Stroke-1250" stroke="#D7D4D1" d="M126.97 821.22l18.7-18.7"/><path id="Stroke-1252" stroke="#D7D4D1" d="M.01 332.83l145.66-145.66"/><path id="Stroke-1254" stroke="#D7D4D1" d="M.01 332.83l145.66-145.66"/><path id="Stroke-1256" stroke="#D7D4D1" d="M.01 302.06L145.67 156.4"/><path id="Stroke-1258" stroke="#D7D4D1" d="M.01 302.06L145.67 156.4"/><path id="Stroke-1260" stroke="#D7D4D1" d="M.01 271.3l145.66-145.67"/><path id="Stroke-1262" stroke="#D7D4D1" d="M.01 271.3l145.66-145.67"/><path id="Stroke-1264" stroke="#D7D4D1" d="M.01 240.53L145.67 94.87"/><path id="Stroke-1266" stroke="#D7D4D1" d="M.01 240.53L145.67 94.87"/><path id="Stroke-1268" stroke="#D7D4D1" d="M.01 209.76L145.67 64.1"/><path id="Stroke-1270" stroke="#D7D4D1" d="M.01 209.76L145.67 64.1"/><path id="Stroke-1272" stroke="#D7D4D1" d="M.01 179L145.67 33.32"/><path id="Stroke-1274" stroke="#D7D4D1" d="M.01 179L145.67 33.32"/><path id="Stroke-1276" stroke="#D7D4D1" d="M.01 148.22L145.67 2.56"/><path id="Stroke-1278" stroke="#D7D4D1" d="M.01 148.22L145.67 2.56"/><path id="Stroke-1280" stroke="#D7D4D1" d="M.01 117.46L114.62 2.85"/><path id="Stroke-1282" stroke="#D7D4D1" d="M.01 117.46L114.62 2.85"/><path id="Stroke-1284" stroke="#D7D4D1" d="M.01 86.69L83.9 2.8"/><path id="Stroke-1286" stroke="#D7D4D1" d="M.01 86.69L83.9 2.8"/><path id="Stroke-1288" stroke="#D7D4D1" d="M.01 55.92l53.1-53.1"/><path id="Stroke-1290" stroke="#D7D4D1" d="M.01 25.15l22.3-22.3"/><path id="Stroke-1292" stroke="#D7D4D1" d="M.01 25.15l22.3-22.3"/><path id="Stroke-1294" stroke="#072938" d="M145.7.77v820.46"/></g><g id="Group-1307"><g id="Group-1300" transform="translate(70 183)"><polygon id="Fill-1297" fill="#ECF2F6" points=".077 .921 .077 474.054 159.042 474.054 159.042 .921"/><polygon id="Stroke-1299" stroke="#329DE7" stroke-linecap="round" stroke-linejoin="round" stroke-width="8" points=".077 .921 .077 474.054 159.042 474.054 159.042 .921"/></g><mask id="mask-2" fill="white"><use xlink:href="#path-1"/></mask><polygon id="Fill-1301" fill="#ECF2F6" points="546.971 420.487 451.993 183.921 388.007 183.921 388.007 657.053 451.993 657.053" mask="url(#mask-2)"/><polygon id="Stroke-1303" stroke="#329DE7" stroke-linecap="round" stroke-linejoin="round" stroke-width="8" points="546.971 420.487 451.993 183.921 388.007 183.921 388.007 657.053 451.993 657.053" mask="url(#mask-2)"/><g id="Group-1306" mask="url(#mask-2)"><g transform="translate(229 183)"><polygon id="Fill-1304" fill="#FFFFFF" points=".042 .921 .042 474.054 159.007 474.054 159.007 .921"/><polygon id="Stroke-1305" stroke="#072938" stroke-linecap="round" stroke-linejoin="round" stroke-width="8" points=".042 .921 .042 474.054 159.007 474.054 159.007 .921"/></g></g></g></g></g></svg>