<svg xmlns="http://www.w3.org/2000/svg" xmlns:xlink="http://www.w3.org/1999/xlink" viewBox="0 0 843 576"><defs><polygon id="path-1" points=".338 0 574.662 0 574.662 842 .338 842"/><polygon id="path-3" points=".194 .191 184.56 .191 184.56 319.519 .194 319.519"/><polygon id="path-5" points=".019 .587 87.031 .587 87.031 89.436 .019 89.436"/><polygon id="path-7" points=".338 842 .338 0 574.662 0 574.662 842"/><polygon id="path-9" points=".338 0 492.232 0 492.232 842 .338 842"/></defs><g id="17a" fill="none" fill-rule="evenodd"><g transform="rotate(-90 288 287.5)"><g id="Group-1477"><mask id="mask-2" fill="white"><use xlink:href="#path-1"/></mask><polygon id="Fill-1465" fill="#D7D4D1" points=".338 0 .338 842 574.662 842 574.662 0" mask="url(#mask-2)"/><polygon id="Fill-1467" fill="#F0F2CB" points="213.793 434.768 162.515 345.95 366.35 345.95 417.629 434.768" mask="url(#mask-2)"/><polygon id="Stroke-1468" stroke="#072938" stroke-linecap="round" stroke-linejoin="round" stroke-width="8" points="213.793 434.768 162.515 345.95 366.35 345.95 417.629 434.768" mask="url(#mask-2)"/><polygon id="Fill-1469" fill="#ECF2F6" points="162.515 345.95 111.236 257.132 315.071 257.132 366.35 345.95" mask="url(#mask-2)"/><polygon id="Stroke-1470" stroke="#072938" stroke-linecap="round" stroke-linejoin="round" stroke-width="8" points="162.515 345.95 111.236 257.132 315.072 257.132 366.35 345.95" mask="url(#mask-2)"/><polygon id="Fill-1471" fill="#ECF2F6" points="417.629 434.768 366.35 345.95 468.268 345.95 519.547 434.768" mask="url(#mask-2)"/><polygon id="Stroke-1472" stroke="#072938" stroke-linecap="round" stroke-linejoin="round" stroke-width="8" points="417.629 434.768 366.35 345.95 468.268 345.95 519.547 434.768" mask="url(#mask-2)"/><polygon id="Fill-1473" fill="#ECF2F6" points="366.35 345.95 315.071 257.132 416.989 257.132 468.268 345.95" mask="url(#mask-2)"/><polygon id="Stroke-1474" stroke="#072938" stroke-linecap="round" stroke-linejoin="round" stroke-width="8" points="366.35 345.95 315.071 257.132 416.989 257.132 468.268 345.95" mask="url(#mask-2)"/><polygon id="Fill-1475" fill="#D7D4D1" points="65.745 231.191 234.56 523.586 219.018 550.519 50.194 258.106" mask="url(#mask-2)"/><polygon id="Stroke-1476" stroke="#072938" stroke-linecap="round" stroke-linejoin="round" stroke-width="8" points="65.745 231.191 234.56 523.586 219.018 550.519 50.194 258.106" mask="url(#mask-2)"/></g><g id="Group-1480" transform="translate(50 231)"><mask id="mask-4" fill="white"><use xlink:href="#path-3"/></mask><polygon id="Fill-1478" fill="#072938" fill-opacity=".2" points="15.745 .191 184.56 292.586 169.018 319.519 .194 27.106" mask="url(#mask-4)"/></g><g id="Group-1484" transform="translate(219 523)"><polygon id="Fill-1481" fill="#D7D4D1" points=".019 27.519 15.56 .586 87.032 .586 35.76 89.437"/><polygon id="Stroke-1483" stroke="#072938" stroke-linecap="round" stroke-linejoin="round" stroke-width="8" points=".019 27.519 15.56 .586 87.032 .586 35.76 89.437"/></g><g id="Group-1487" transform="translate(219 523)"><mask id="mask-6" fill="white"><use xlink:href="#path-5"/></mask><polygon id="Fill-1485" fill="#072938" fill-opacity=".4" points=".019 27.519 15.56 .586 87.032 .586 35.76 89.437" mask="url(#mask-6)"/></g><g id="Group-1505"><path id="Stroke-1488" stroke="#072938" stroke-linecap="round" stroke-linejoin="round" stroke-width="8" d="M269.77 319.74l-61.95-35.92"/><path id="Stroke-1490" stroke="#072938" stroke-linecap="round" stroke-linejoin="round" stroke-width="8" d="M264.58 298.9l-26.8-15.55"/><path id="Stroke-1492" stroke="#072938" stroke-linecap="round" stroke-linejoin="round" stroke-width="8" d="M422.64 319.74l-61.94-35.92"/><path id="Stroke-1494" stroke="#072938" stroke-linecap="round" stroke-linejoin="round" stroke-width="8" d="M417.46 298.9l-26.81-15.55"/><mask id="mask-8" fill="white"><use xlink:href="#path-7"/></mask><polygon id="Fill-1496" fill="#ECF2F6" points="162.515 523.586 213.793 434.768 417.629 434.768 366.35 523.586" mask="url(#mask-8)"/><polygon id="Stroke-1498" stroke="#072938" stroke-linecap="round" stroke-linejoin="round" stroke-width="8" points="162.515 523.586 213.794 434.768 417.629 434.768 366.35 523.586" mask="url(#mask-8)"/><polygon id="Fill-1499" fill="#D7D4D1" points="213.793 434.768 223.242 418.359 408.156 418.359 417.629 434.768" mask="url(#mask-8)"/><polygon id="Stroke-1500" stroke="#072938" stroke-linecap="round" stroke-linejoin="round" stroke-width="8" points="213.793 434.768 223.242 418.359 408.156 418.359 417.629 434.768" mask="url(#mask-8)"/><polygon id="Fill-1501" fill="#D7D4D1" points="162.515 345.95 181.45 345.95 223.242 418.359 213.793 434.769" mask="url(#mask-8)"/><polygon id="Stroke-1502" stroke="#072938" stroke-linecap="round" stroke-linejoin="round" stroke-width="8" points="162.515 345.95 181.45 345.95 223.242 418.359 213.794 434.769" mask="url(#mask-8)"/><path id="Stroke-1503" stroke="#072938" stroke-linecap="round" stroke-linejoin="round" stroke-width="8" d="M272.37 523.59l-8.7-15.25" mask="url(#mask-8)"/><polygon id="Fill-1504" fill="#F2F1F0" points="306.029 523.586 254.75 612.404 50.195 258.106 101.474 169.289 3.734 0 .339 0 .339 842 489.863 842" mask="url(#mask-8)"/></g><g id="Group-1508"><mask id="mask-10" fill="white"><use xlink:href="#path-9"/></mask><polygon id="Stroke-1506" stroke="#072938" stroke-linecap="round" stroke-linejoin="round" stroke-width="8" points="306.029 523.586 254.75 612.405 50.195 258.107 101.474 169.288 -3.764 -12.988 -3.764 846.103 492.232 846.103" mask="url(#mask-10)"/></g><g id="Group-1514" stroke="#072938" stroke-linecap="round" stroke-linejoin="round" stroke-width="8" transform="translate(411 371)"><path id="Stroke-1509" d="M62.92 36.64L.98.72"/><path id="Stroke-1511" d="M34.5 38L4.63 20.68"/></g></g></g></svg>