<svg xmlns="http://www.w3.org/2000/svg" viewBox="0 0 830 550"><g id="1c" fill="none" fill-rule="evenodd"><g id="Group-473" transform="rotate(-90 275.5 271)"><g><path id="Fill-322" fill="#072938" d="M450.52 249.73a10.26 10.26 0 1 1 0-20.51 10.26 10.26 0 0 1 0 20.5"/><g id="Group-326" transform="translate(292)"><polygon id="Fill-324" fill="#FFFFFF" points=".012 67.944 .012 .256 75.905 .256 75.905 67.944"/><polygon id="Stroke-325" stroke="#072938" stroke-linecap="round" stroke-linejoin="round" stroke-width="8" points=".012 67.944 .012 .256 75.905 .256 75.905 67.944"/></g><g id="Group-329" transform="translate(476)"><polygon id="Fill-327" fill="#FFFFFF" points=".616 54.611 .616 .256 66.253 .256 66.253 54.611"/><polygon id="Stroke-328" stroke="#072938" stroke-linecap="round" stroke-linejoin="round" stroke-width="8" points=".616 54.611 .616 .256 66.253 .256 66.253 54.611"/></g><g id="Group-332" transform="translate(459)"><polygon id="Fill-330" fill="#FFFFFF" points=".694 67.944 .694 .256 17.103 .256 17.103 67.944"/><polygon id="Stroke-331" stroke="#072938" stroke-linecap="round" stroke-linejoin="round" stroke-width="8" points=".694 67.944 .694 .256 17.103 .256 17.103 67.944"/></g><g id="Group-335" transform="translate(271)"><polygon id="Fill-333" fill="#FFFFFF" points=".5 59.739 .5 .256 21.012 .256 21.012 59.739"/><polygon id="Stroke-334" stroke="#072938" stroke-linecap="round" stroke-linejoin="round" stroke-width="8" points=".5 59.739 .5 .256 21.012 .256 21.012 59.739"/></g><path id="Fill-336" fill="#FFFFFF" d="M271.5 704.83V526.38h72.61a22.76 22.76 0 0 1 22.77 22.76v132.92a22.76 22.76 0 0 1-22.77 22.77H271.5z"/><path id="Stroke-337" stroke="#072938" stroke-linecap="round" stroke-linejoin="round" stroke-width="8" d="M271.5 704.83V526.38h72.61a22.76 22.76 0 0 1 22.77 22.76v132.92a22.76 22.76 0 0 1-22.77 22.77H271.5z"/><g id="Group-340" transform="translate(271 538)"><polygon id="Fill-338" fill="#FFFFFF" points="41.523 154.522 41.523 .685 .5 .685 .5 154.522"/><polygon id="Stroke-339" stroke="#072938" stroke-linecap="round" stroke-linejoin="round" stroke-width="8" points="41.523 154.522 41.523 .685 .5 .685 .5 154.522"/></g><path id="Fill-341" fill="#FFFFFF" d="M322.78 692.52v-70.76c0-3.4-2.76-6.16-6.15-6.16h-14.36v76.92h20.5z"/><path id="Stroke-342" stroke="#072938" stroke-linecap="round" stroke-linejoin="round" stroke-width="8" d="M322.78 692.52v-70.76c0-3.4-2.76-6.16-6.15-6.16h-14.36v76.92h20.5z"/><path id="Fill-343" fill="#FFFFFF" d="M322.78 609.45v-70.77h-20.51v76.92h14.36c3.4 0 6.15-2.75 6.15-6.15"/><path id="Stroke-344" stroke="#072938" stroke-linecap="round" stroke-linejoin="round" stroke-width="8" d="M322.78 609.45v-70.77h-20.51v76.92h14.36c3.4 0 6.15-2.75 6.15-6.15z"/><path id="Fill-345" fill="#FFFFFF" d="M333.03 717.14a12.3 12.3 0 0 0 0-24.62H271.5v20.51h52.38a12.26 12.26 0 0 0 9.15 4.1"/><path id="Stroke-346" stroke="#072938" stroke-linecap="round" stroke-linejoin="round" stroke-width="8" d="M333.03 717.14a12.3 12.3 0 0 0 0-24.62H271.5v20.51h52.38a12.26 12.26 0 0 0 9.15 4.1z"/><path id="Fill-347" fill="#FFFFFF" d="M333.03 514.07a12.3 12.3 0 0 1 0 24.61H271.5v-20.5h52.38a12.26 12.26 0 0 1 9.15-4.1"/><path id="Stroke-348" stroke="#072938" stroke-linecap="round" stroke-linejoin="round" stroke-width="8" d="M333.03 514.07a12.3 12.3 0 0 1 0 24.61H271.5v-20.5h52.38a12.26 12.26 0 0 1 9.15-4.1z"/><path id="Fill-349" fill="#FFFFFF" d="M449.4 264.66a26.43 26.43 0 0 0 0-50.37v50.37z"/><path id="Stroke-350" stroke="#072938" stroke-linecap="round" stroke-linejoin="round" stroke-width="8" d="M449.4 264.66a26.43 26.43 0 0 0 0-50.37v50.37z"/><path id="Stroke-351" stroke="#072938" stroke-linecap="round" stroke-linejoin="round" stroke-width="8" d="M542.25 240.14h-74.42"/><polygon id="Fill-352" fill="#ECF2F6" points="271.5 410.487 271.5 .256 .747 .256 .747 410.487"/><path id="Stroke-353" stroke="#072938" stroke-linecap="round" stroke-linejoin="round" stroke-width="8" d="M379.65 139.01l-39.94 7.08c-5.6 1-9.7 5.87-9.7 11.57v47.01"/><path id="Stroke-354" stroke="#072938" stroke-linecap="round" stroke-linejoin="round" stroke-width="8" d="M330.01 161.8l-57.64-14.38"/><path id="Stroke-355" stroke="#072938" stroke-linecap="round" stroke-linejoin="round" stroke-width="8" d="M330.01 188.21l-57.64 14.39"/><path id="Stroke-356" stroke="#072938" stroke-linecap="round" stroke-linejoin="round" stroke-width="8" d="M379.65 339.93l-39.94-7.08c-5.6-1-9.7-5.87-9.7-11.57v-47"/><path id="Stroke-357" stroke="#072938" stroke-linecap="round" stroke-linejoin="round" stroke-width="8" d="M330.01 317.14l-57.64 14.39"/><path id="Stroke-358" stroke="#072938" stroke-linecap="round" stroke-linejoin="round" stroke-width="8" d="M330.01 290.73l-57.64-14.38"/><path id="Stroke-359" stroke="#072938" stroke-linecap="round" stroke-linejoin="round" stroke-width="8" d="M364.08 264.3l-91.71-52.22"/><path id="Stroke-360" stroke="#072938" stroke-linecap="round" stroke-linejoin="round" stroke-width="8" d="M364.08 214.64l-91.71 52.22"/><path id="Stroke-361" stroke="#072938" stroke-linecap="round" stroke-linejoin="round" stroke-width="8" d="M364.08 181.94V297"/><path id="Stroke-362" stroke="#072938" stroke-linecap="round" stroke-linejoin="round" stroke-width="8" d="M309.96 156.8v36.66"/><path id="Stroke-363" stroke="#072938" stroke-linecap="round" stroke-linejoin="round" stroke-width="8" d="M309.96 285.73v36.42"/><g id="Group-366" transform="translate(133 745)"><polygon id="Fill-364" fill="#FFFFFF" points=".054 .274 .054 20.786 32.873 20.786 32.873 .274"/><polygon id="Stroke-365" stroke="#072938" stroke-linecap="round" stroke-linejoin="round" stroke-width="8" points=".054 .274 .054 20.786 32.873 20.786 32.873 .274"/></g><g id="Group-369" transform="translate(133 686)"><polygon id="Fill-367" fill="#FFFFFF" points=".054 .899 .054 21.411 32.873 21.411 32.873 .899"/><polygon id="Stroke-368" stroke="#072938" stroke-linecap="round" stroke-linejoin="round" stroke-width="8" points=".054 .899 .054 21.411 32.873 21.411 32.873 .899"/></g><g id="Group-372" transform="translate(199 676)"><polygon id="Fill-370" fill="#FFFFFF" points=".118 .644 .118 21.155 32.936 21.155 32.936 .644"/><polygon id="Stroke-371" stroke="#072938" stroke-linecap="round" stroke-linejoin="round" stroke-width="8" points=".118 .644 .118 21.155 32.936 21.155 32.936 .644"/></g><g id="Group-375" transform="translate(133 638)"><polygon id="Fill-373" fill="#FFFFFF" points=".054 .405 .054 20.916 32.873 20.916 32.873 .405"/><polygon id="Stroke-374" stroke="#072938" stroke-linecap="round" stroke-linejoin="round" stroke-width="8" points=".054 .405 .054 20.916 32.873 20.916 32.873 .405"/></g><g id="Group-378" transform="translate(0 745)"><polygon id="Fill-376" fill="#FFFFFF" points=".966 .274 .966 20.786 33.784 20.786 33.784 .274"/><polygon id="Stroke-377" stroke="#072938" stroke-linecap="round" stroke-linejoin="round" stroke-width="8" points=".966 .274 .966 20.786 33.784 20.786 33.784 .274"/></g><g id="Group-381" transform="translate(66 666)"><polygon id="Fill-379" fill="#FFFFFF" points=".989 .194 .989 41.41 33.808 41.41 33.808 .194"/><polygon id="Stroke-380" stroke="#072938" stroke-linecap="round" stroke-linejoin="round" stroke-width="8" points=".989 .194 .989 41.41 33.808 41.41 33.808 .194"/></g><g id="Group-384" transform="translate(66 629)"><polygon id="Fill-382" fill="#FFFFFF" points=".989 .273 .989 20.785 33.808 20.785 33.808 .273"/><polygon id="Stroke-383" stroke="#072938" stroke-linecap="round" stroke-linejoin="round" stroke-width="8" points=".989 .273 .989 20.785 33.808 20.785 33.808 .273"/></g><path id="Fill-385" fill="#FFFFFF" d="M23.05 697.15a22.08 22.08 0 1 0 0-44.16 22.08 22.08 0 0 0 0 44.16"/><path id="Stroke-386" stroke="#072938" stroke-linecap="round" stroke-linejoin="round" stroke-width="5.33" d="M23.05 697.15a22.08 22.08 0 1 0 0-44.16 22.08 22.08 0 0 0 0 44.16z"/><g id="Group-389" transform="translate(23 675)"><path id="Fill-387" fill="#FFFFFF" d="M.05.07c5.76 5.76 17.28 4.8 22.08 0"/><path id="Stroke-388" stroke="#072938" stroke-linecap="round" stroke-linejoin="round" stroke-width="5.33" d="M.05.07c5.76 5.76 17.28 4.8 22.08 0"/></g><g id="Group-392" transform="translate(11 675)"><path id="Fill-390" fill="#FFFFFF" d="M12.05.07C4.18 2.18-.75 12.64 1 19.2"/><path id="Stroke-391" stroke="#072938" stroke-linecap="round" stroke-linejoin="round" stroke-width="5.33" d="M12.05.07C4.18 2.18-.75 12.64 1 19.2"/></g><g id="Group-395" transform="translate(12 655)"><path id="Fill-393" fill="#FFFFFF" d="M11.05 20.07C13.15 12.2 6.55 2.7 0 .95"/><path id="Stroke-394" stroke="#072938" stroke-linecap="round" stroke-linejoin="round" stroke-width="5.33" d="M11.05 20.07C13.15 12.2 6.55 2.7 0 .95"/></g><g id="Group-398" transform="translate(26 653)"><path id="Fill-396" fill="#FFFFFF" d="M8.09 26.04C10.19 18.17 7.55 7.34.46.25"/><path id="Stroke-397" stroke="#072938" stroke-linecap="round" stroke-linejoin="round" stroke-width="5.33" d="M8.09 26.04C10.19 18.17 7.55 7.34.46.25"/></g><g id="Group-401" transform="translate(14 682)"><path id="Fill-399" fill="#FFFFFF" d="M.1.65c5.75 5.76 16.45 8.88 26.14 6.29"/><path id="Stroke-400" stroke="#072938" stroke-linecap="round" stroke-linejoin="round" stroke-width="5.33" d="M.1.65c5.75 5.76 16.45 8.88 26.14 6.29"/></g><g id="Group-404" transform="translate(2 663)"><path id="Fill-402" fill="#FFFFFF" d="M18.96.53C11.1 2.63 3.04 10.33.44 20.03"/><path id="Stroke-403" stroke="#072938" stroke-linecap="round" stroke-linejoin="round" stroke-width="5.33" d="M18.96.53C11.1 2.63 3.04 10.33.44 20.03"/></g><path id="Stroke-405" stroke="#072938" stroke-linecap="round" stroke-linejoin="round" stroke-width="8" d="M199.12 782.65v-171"/><path id="Stroke-406" stroke="#072938" stroke-linecap="round" stroke-linejoin="round" stroke-width="8" d="M66.99 782.65v-171"/><path id="Stroke-407" stroke="#072938" stroke-linecap="round" stroke-linejoin="round" stroke-width="8" d="M133.05 782.65v-171"/><path id="Stroke-408" stroke="#072938" stroke-linecap="round" stroke-linejoin="round" stroke-width="8" d="M206.11 611.66H.97"/><path id="Stroke-409" stroke="#072938" stroke-linecap="round" stroke-linejoin="round" stroke-width="8" d="M206.11 725.65H.97"/><path id="Stroke-410" stroke="#072938" stroke-linecap="round" stroke-linejoin="round" stroke-width="8" d="M206.11 784.25H.97"/><path id="Fill-411" fill="#FFFFFF" d="M.75 546.19v-3.29a7.65 7.65 0 0 1 7.65-7.65H206c19.8 0 23.75 9.3 23.75 9.3s-3.95 9.29-23.75 9.29H8.4a7.65 7.65 0 0 1-7.65-7.65"/><path id="Stroke-412" stroke="#072938" stroke-linecap="round" stroke-linejoin="round" stroke-width="8" d="M.75 546.19v-3.29a7.65 7.65 0 0 1 7.65-7.65H206c19.8 0 23.75 9.3 23.75 9.3s-3.95 9.29-23.75 9.29H8.4a7.65 7.65 0 0 1-7.65-7.65z"/><path id="Fill-413" fill="#FFFFFF" d="M.75 527.6v-3.28a7.65 7.65 0 0 1 7.65-7.65H206c19.8 0 23.75 9.29 23.75 9.29s-3.95 9.3-23.75 9.3H8.4a7.65 7.65 0 0 1-7.65-7.66"/><path id="Stroke-414" stroke="#072938" stroke-linecap="round" stroke-linejoin="round" stroke-width="8" d="M.75 527.6v-3.28a7.65 7.65 0 0 1 7.65-7.65H206c19.8 0 23.75 9.29 23.75 9.29s-3.95 9.3-23.75 9.3H8.4a7.65 7.65 0 0 1-7.65-7.66z"/><g id="Group-417" transform="translate(179 511)"><polygon id="Fill-415" fill="#FFFFFF" points=".381 47.688 .381 .818 16.79 .818 16.79 47.688"/><polygon id="Stroke-416" stroke="#072938" stroke-linecap="round" stroke-linejoin="round" stroke-width="8" points=".381 47.688 .381 .818 16.79 .818 16.79 47.688"/></g><g id="Group-420" transform="translate(53 511)"><polygon id="Fill-418" fill="#FFFFFF" points=".978 47.688 .978 .818 17.387 .818 17.387 47.688"/><polygon id="Stroke-419" stroke="#072938" stroke-linecap="round" stroke-linejoin="round" stroke-width="8" points=".978 47.688 .978 .818 17.387 .818 17.387 47.688"/></g><path id="Fill-421" fill="#FFFFFF" d="M.97 566.25v38.64c0 .2.14.38.34.42l5.53 1.08c.17.04.35-.04.44-.19l9.1-14.8a8.72 8.72 0 0 1 10.07-3.76l6.44 2.04 5.05-20.2L18 566.06a46 46 0 0 0-14.3-.2l-2.73.39z"/><path id="Stroke-422" stroke="#072938" stroke-linecap="round" stroke-linejoin="round" stroke-width="8" d="M.97 566.25v38.64c0 .2.14.38.34.42l5.53 1.08c.17.04.35-.04.44-.19l9.1-14.8a8.72 8.72 0 0 1 10.07-3.76l6.44 2.04 5.05-20.2L18 566.06a46 46 0 0 0-14.3-.2l-2.73.39z"/><path id="Stroke-423" stroke="#072938" stroke-linecap="round" stroke-linejoin="round" stroke-width="8" d="M17.76 589.68l-4-8.94"/><path id="Fill-424" fill="#FFFFFF" d="M.97 545.86v38.65c0 .2.14.37.34.41l5.53 1.1c.17.02.35-.05.44-.2l9.1-14.81a8.72 8.72 0 0 1 10.07-3.75l6.44 2.04 5.05-20.2L18 545.67a46.03 46.03 0 0 0-14.3-.2l-2.73.4z"/><path id="Stroke-425" stroke="#072938" stroke-linecap="round" stroke-linejoin="round" stroke-width="8" d="M.97 545.86v38.65c0 .2.14.37.34.41l5.53 1.1c.17.02.35-.05.44-.2l9.1-14.81a8.72 8.72 0 0 1 10.07-3.75l6.44 2.04 5.05-20.2L18 545.67a46.03 46.03 0 0 0-14.3-.2l-2.73.4z"/><path id="Stroke-426" stroke="#072938" stroke-linecap="round" stroke-linejoin="round" stroke-width="8" d="M17.76 569.3l-3.89-8.7"/><path id="Stroke-427" stroke="#072938" stroke-linecap="round" stroke-linejoin="round" stroke-width="8" d="M185.98 446.96l1.39 10.96"/><path id="Stroke-428" stroke="#072938" stroke-linecap="round" stroke-linejoin="round" stroke-width="8" d="M161.76 450.01l1.38 10.96"/><path id="Stroke-429" stroke="#072938" stroke-linecap="round" stroke-linejoin="round" stroke-width="8" d="M21.34 465.47l1.94 15.37"/><path id="Stroke-430" stroke="#072938" stroke-linecap="round" stroke-linejoin="round" stroke-width="8" d="M.75 475.87l185.93-23.43"/><path id="Stroke-431" stroke="#072938" stroke-linecap="round" stroke-linejoin="round" stroke-width="8" d="M187.45 500.86l-1.34 10.96"/><path id="Stroke-432" stroke="#072938" stroke-linecap="round" stroke-linejoin="round" stroke-width="8" d="M163.2 497.91l-1.33 10.97"/><path id="Stroke-433" stroke="#072938" stroke-linecap="round" stroke-linejoin="round" stroke-width="8" d="M23.25 478.68l-1.87 15.38"/><path id="Stroke-434" stroke="#072938" stroke-linecap="round" stroke-linejoin="round" stroke-width="8" d="M.75 483.75l186.03 22.59"/><path id="Fill-435" fill="#072938" d="M179.77 249.73a10.26 10.26 0 1 1 0-20.51 10.26 10.26 0 0 1 0 20.5"/><g id="Group-438" transform="translate(21)"><polygon id="Fill-436" fill="#FFFFFF" points=".259 67.944 .259 .256 76.152 .256 76.152 67.944"/><polygon id="Stroke-437" stroke="#072938" stroke-linecap="round" stroke-linejoin="round" stroke-width="8" points=".259 67.944 .259 .256 76.152 .256 76.152 67.944"/></g><g id="Group-441" transform="translate(205)"><polygon id="Fill-439" fill="#FFFFFF" points=".863 54.611 .863 .256 66.5 .256 66.5 54.611"/><polygon id="Stroke-440" stroke="#072938" stroke-linecap="round" stroke-linejoin="round" stroke-width="8" points=".863 54.611 .863 .256 66.5 .256 66.5 54.611"/></g><g id="Group-444" transform="translate(188)"><polygon id="Fill-442" fill="#FFFFFF" points=".941 67.944 .941 .256 17.35 .256 17.35 67.944"/><polygon id="Stroke-443" stroke="#072938" stroke-linecap="round" stroke-linejoin="round" stroke-width="8" points=".941 67.944 .941 .256 17.35 .256 17.35 67.944"/></g><g id="Group-447"><polygon id="Fill-445" fill="#FFFFFF" points=".747 59.739 .747 .256 21.259 .256 21.259 59.739"/><polygon id="Stroke-446" stroke="#072938" stroke-linecap="round" stroke-linejoin="round" stroke-width="8" points=".747 59.739 .747 .256 21.259 .256 21.259 59.739"/></g><path id="Fill-448" fill="#FFFFFF" d="M.75 328.7V150.25h72.61A22.76 22.76 0 0 1 96.13 173v132.92a22.76 22.76 0 0 1-22.77 22.77H.75z"/><path id="Stroke-449" stroke="#072938" stroke-linecap="round" stroke-linejoin="round" stroke-width="8" d="M.75 328.7V150.25h72.61A22.76 22.76 0 0 1 96.13 173v132.92a22.76 22.76 0 0 1-22.77 22.77H.75z"/><g id="Group-452" transform="translate(0 162)"><polygon id="Fill-450" fill="#FFFFFF" points="41.77 154.391 41.77 .554 .747 .554 .747 154.391"/><polygon id="Stroke-451" stroke="#072938" stroke-linecap="round" stroke-linejoin="round" stroke-width="8" points="41.77 154.391 41.77 .554 .747 .554 .747 154.391"/></g><path id="Fill-453" fill="#FFFFFF" d="M52.03 316.39v-70.76c0-3.4-2.76-6.16-6.16-6.16H31.51v76.92h20.52z"/><path id="Stroke-454" stroke="#072938" stroke-linecap="round" stroke-linejoin="round" stroke-width="8" d="M52.03 316.39v-70.76c0-3.4-2.76-6.16-6.16-6.16H31.51v76.92h20.52z"/><path id="Fill-455" fill="#FFFFFF" d="M52.03 233.32v-70.77H31.5v76.92h14.36c3.4 0 6.16-2.75 6.16-6.15"/><path id="Stroke-456" stroke="#072938" stroke-linecap="round" stroke-linejoin="round" stroke-width="8" d="M52.03 233.32v-70.77H31.5v76.92h14.36c3.4 0 6.16-2.75 6.16-6.15z"/><path id="Fill-457" fill="#FFFFFF" d="M62.28 341a12.3 12.3 0 0 0 0-24.61H.75v20.51h52.38a12.26 12.26 0 0 0 9.15 4.1"/><path id="Stroke-458" stroke="#072938" stroke-linecap="round" stroke-linejoin="round" stroke-width="8" d="M62.28 341a12.3 12.3 0 0 0 0-24.61H.75v20.51h52.38a12.26 12.26 0 0 0 9.15 4.1z"/><path id="Fill-459" fill="#FFFFFF" d="M62.28 137.94a12.3 12.3 0 0 1 0 24.61H.75v-20.5h52.38a12.26 12.26 0 0 1 9.15-4.11"/><path id="Stroke-460" stroke="#072938" stroke-linecap="round" stroke-linejoin="round" stroke-width="8" d="M62.28 137.94a12.3 12.3 0 0 1 0 24.61H.75v-20.5h52.38a12.26 12.26 0 0 1 9.15-4.11z"/><path id="Fill-461" fill="#FFFFFF" d="M178.65 264.66a26.43 26.43 0 0 0 0-50.37v50.37z"/><path id="Stroke-462" stroke="#072938" stroke-linecap="round" stroke-linejoin="round" stroke-width="8" d="M178.65 264.66a26.43 26.43 0 0 0 0-50.37v50.37z"/><path id="Stroke-463" stroke="#072938" stroke-linecap="round" stroke-linejoin="round" stroke-width="8" d="M271.5 240.14h-74.42"/><polygon id="Stroke-464" stroke="#072938" stroke-linecap="round" stroke-linejoin="round" stroke-width="8" points="542.253 820.719 542.253 .256 271.5 .256 271.5 820.719"/><polygon id="Stroke-465" stroke="#072938" stroke-linecap="round" stroke-linejoin="round" stroke-width="8" points="271.5 820.719 271.5 .256 .747 .256 .747 820.719"/><polygon id="Stroke-466" stroke="#329DE7" stroke-linecap="round" stroke-linejoin="round" stroke-width="8" points="271.5 410.487 271.5 .256 .747 .256 .747 410.487"/><g id="Group-469" transform="translate(367 16)"><path id="Fill-467" fill="#FFFFFF" d="M23.47 18.1a8.72 8.72 0 0 0 0-17.43H.9"/><path id="Stroke-468" stroke="#072938" stroke-linecap="round" stroke-linejoin="round" stroke-width="8" d="M23.47 18.1a8.72 8.72 0 0 0 0-17.43H.9"/></g><g id="Group-472" transform="translate(97 16)"><path id="Fill-470" fill="#FFFFFF" d="M23.48 18.1a8.72 8.72 0 0 0 0-17.43H.92"/><path id="Stroke-471" stroke="#072938" stroke-linecap="round" stroke-linejoin="round" stroke-width="8" d="M23.48 18.1a8.72 8.72 0 0 0 0-17.43H.92"/></g></g></g></g></svg>