<svg xmlns="http://www.w3.org/2000/svg" viewBox="0 0 783 568"><g id="3a" fill="none" fill-rule="evenodd"><g transform="rotate(-90 281.5 282)"><g id="Group-478" fill="#ECF2F6" transform="translate(0 521)"><polygon id="Fill-475" points="42.36 258.24 42.36 158.833 .369 116.84 13.639 106.778 25.656 101.83 42.36 99.446 42.36 .04 247.629 .04 247.629 99.446 247.629 158.833 247.629 258.24"/></g><g id="Group-541"><path id="Stroke-479" stroke="#329DE7" stroke-dasharray="0 6.495" stroke-linecap="round" stroke-linejoin="round" stroke-width="2.5" d="M35.7 620.81A59.15 59.15 0 0 0 2.8 635.55"/><path id="Stroke-483" stroke="#329DE7" stroke-linecap="round" stroke-linejoin="round" stroke-width="8" d="M42.36 679.83l-42-41.99"/><polyline id="Stroke-485" stroke="#072938" stroke-linecap="round" stroke-linejoin="round" stroke-width="8" points="42.36 521.04 42.36 4.641 558.759 4.641 558.759 779.24 247.629 779.24"/><polygon id="Fill-487" fill="#FFFFFF" points="386.042 7.869 473.276 7.869 473.276 1.415 386.042 1.415"/><path id="Fill-489" fill="#072938" d="M473.92 8.51V.77H385.4V8.5h88.52zM386.7 7.22V2.06h85.94v5.16H386.7z"/><polygon id="Fill-490" fill="#FFFFFF" points="127.843 7.869 215.076 7.869 215.076 1.415 127.843 1.415"/><path id="Fill-491" fill="#072938" d="M215.72 8.51V.77H127.2V8.5h88.52zM128.5 7.22V2.06h85.94v5.16H128.5z"/><polygon id="Fill-492" fill="#FFFFFF" points="555.532 435.558 561.985 435.558 561.985 348.324 555.532 348.324"/><path id="Fill-493" fill="#072938" d="M562.63 436.2v-88.52h-7.74v88.52h7.74zm-6.45-1.29v-85.94h5.16v85.94h-5.16z"/><polygon id="Fill-494" fill="#FFFFFF" points="555.532 693.756 561.985 693.756 561.985 606.522 555.532 606.522"/><path id="Fill-495" fill="#072938" d="M562.63 694.4v-88.52h-7.74v88.52h7.74zm-6.45-1.29v-85.94h5.16v85.94h-5.16z"/><polygon id="Fill-496" fill="#FFFFFF" points="45.587 90.124 45.587 177.358 39.133 177.358 39.133 90.124"/><path id="Fill-497" fill="#072938" d="M46.23 178V89.48H38.5V178h7.74zm-6.45-1.29V90.77h5.16v85.94h-5.16z"/><polygon id="Fill-498" fill="#FFFFFF" points="45.587 348.324 45.587 435.558 39.133 435.558 39.133 348.324"/><path id="Fill-499" fill="#072938" d="M46.23 436.2v-88.52H38.5v88.52h7.74zm-6.45-1.29v-85.94h5.16v85.94h-5.16z"/><path id="Stroke-500" stroke="#072938" stroke-linecap="round" stroke-linejoin="round" stroke-width="2.5" d="M247.43 521.04H42.36"/><path id="Stroke-501" stroke="#072938" stroke-linecap="round" stroke-linejoin="round" stroke-width="2.5" d="M353.49 521.04v99.4"/><path id="Stroke-502" stroke="#072938" stroke-linecap="round" stroke-linejoin="round" stroke-width="2.5" d="M353.49 679.83v99.41"/><path id="Stroke-503" stroke="#072938" stroke-linecap="round" stroke-linejoin="round" stroke-width="2.5" d="M247.63 262.84v99.4"/><path id="Stroke-504" stroke="#072938" stroke-linecap="round" stroke-linejoin="round" stroke-width="2.5" d="M247.63 421.63v99.41"/><path id="Stroke-505" stroke="#072938" stroke-linecap="round" stroke-linejoin="round" stroke-width="2.5" d="M353.49 262.84v99.4"/><path id="Stroke-506" stroke="#072938" stroke-linecap="round" stroke-linejoin="round" stroke-width="2.5" d="M353.49 421.63v99.41"/><path id="Stroke-507" stroke="#072938" stroke-linecap="round" stroke-linejoin="round" stroke-width="2.5" d="M558.76 262.84h-228.5"/><path id="Stroke-508" stroke="#072938" stroke-linecap="round" stroke-linejoin="round" stroke-width="2.5" d="M270.87 262.84H42.36"/><path id="Stroke-509" stroke="#072938" stroke-linecap="round" stroke-linejoin="round" stroke-width="2.5" d="M558.56 521.04H353.5"/><path id="Stroke-510" stroke="#072938" stroke-linecap="round" stroke-linejoin="round" stroke-width="2.5" d="M247.63 521.04v258.2"/><path id="Fill-511" fill="#FFFFFF" d="M270.87 262.84a59.2 59.2 0 0 0 17.39 42"/><path id="Stroke-513" stroke="#072938" stroke-dasharray="0 6.495" stroke-linecap="round" stroke-linejoin="round" stroke-width="2.5" d="M271.24 269.5a59.16 59.16 0 0 0 14.73 32.91"/><path id="Stroke-515" stroke="#072938" stroke-linecap="round" stroke-linejoin="round" stroke-width="2.5" d="M330.25 262.84l-41.99 42"/><path id="Stroke-517" stroke="#072938" stroke-dasharray="0 6.495" stroke-linecap="round" stroke-linejoin="round" stroke-width="2.5" d="M360.14 421.26a59.15 59.15 0 0 0 32.92-14.73"/><path id="Stroke-519" stroke="#072938" stroke-linecap="round" stroke-linejoin="round" stroke-width="2.5" d="M353.49 362.25l42 41.99"/><path id="Stroke-521" stroke="#072938" stroke-dasharray="0 6.495" stroke-linecap="round" stroke-linejoin="round" stroke-width="2.5" d="M240.98 421.26a59.15 59.15 0 0 1-32.92-14.73"/><path id="Stroke-523" stroke="#072938" stroke-linecap="round" stroke-linejoin="round" stroke-width="2.5" d="M247.63 362.25l-42 41.99"/><path id="Stroke-525" stroke="#072938" stroke-dasharray="0 6.495" stroke-linecap="round" stroke-linejoin="round" stroke-width="2.5" d="M360.14 679.46a59.15 59.15 0 0 0 32.92-14.73"/><path id="Stroke-527" stroke="#072938" stroke-linecap="round" stroke-linejoin="round" stroke-width="2.5" d="M353.49 620.45l42 41.99"/><polygon id="Stroke-528" stroke="#072938" stroke-linecap="round" stroke-linejoin="round" stroke-width="2.5" points="558.759 173.769 558.759 155.956 465.815 155.956 465.815 173.769"/><polygon id="Stroke-529" stroke="#072938" stroke-linecap="round" stroke-linejoin="round" stroke-width="2.5" points="558.759 155.955 558.759 138.141 465.815 138.141 465.815 155.955"/><polygon id="Stroke-530" stroke="#072938" stroke-linecap="round" stroke-linejoin="round" stroke-width="2.5" points="558.759 138.141 558.759 120.326 465.815 120.326 465.815 138.141"/><polygon id="Stroke-531" stroke="#072938" stroke-linecap="round" stroke-linejoin="round" stroke-width="2.5" points="558.759 120.326 558.759 102.512 465.815 102.512 465.815 120.326"/><polygon id="Stroke-532" stroke="#072938" stroke-linecap="round" stroke-linejoin="round" stroke-width="2.5" points="558.759 102.512 558.759 84.698 465.815 84.698 465.815 102.512"/><polygon id="Stroke-533" stroke="#072938" stroke-linecap="round" stroke-linejoin="round" stroke-width="2.5" points="376.743 173.769 376.743 191.584 465.814 191.584 465.814 173.769"/><polygon id="Stroke-534" stroke="#072938" stroke-linecap="round" stroke-linejoin="round" stroke-width="2.5" points="376.743 191.584 376.743 209.398 465.814 209.398 465.814 191.584"/><polygon id="Stroke-535" stroke="#072938" stroke-linecap="round" stroke-linejoin="round" stroke-width="2.5" points="376.743 209.398 376.743 227.212 465.814 227.212 465.814 209.398"/><polygon id="Stroke-536" stroke="#072938" stroke-linecap="round" stroke-linejoin="round" stroke-width="2.5" points="376.743 227.212 376.743 245.027 465.814 245.027 465.814 227.212"/><polygon id="Stroke-537" stroke="#072938" stroke-linecap="round" stroke-linejoin="round" stroke-width="2.5" points="376.743 245.027 376.743 262.841 465.814 262.841 465.814 245.027"/><polyline id="Stroke-538" stroke="#329DE7" stroke-linecap="round" stroke-linejoin="round" stroke-width="8" points="42.36 620.446 42.36 521.04 247.629 521.04 247.629 779.24 42.36 779.24 42.36 679.833"/><polygon id="Fill-539" fill="#FFFFFF" points="112.996 782.468 200.23 782.468 200.23 776.012 112.996 776.012"/><path id="Fill-540" fill="#329DE7" d="M200.88 783.11v-7.74h-88.53v7.74h88.53zm-87.24-1.29v-5.16h85.95v5.16h-85.95z"/></g></g></g></svg>