<svg xmlns="http://www.w3.org/2000/svg" viewBox="0 0 498 433"><g id="9a" fill="none" fill-rule="evenodd"><g transform="rotate(-90 217 212)"><g id="Group-645"><g id="Group-614"><polygon id="Fill-611" fill="#FFFFFF" points=".703 469.371 .703 .169 308.376 .169 308.376 469.371"/><polygon id="Stroke-613" stroke="#072938" stroke-linecap="round" stroke-linejoin="round" stroke-width="9" points=".703 469.371 .703 .169 308.376 .169 308.376 469.371"/></g><g id="Group-618" transform="translate(308)"><polygon id="Fill-615" fill="#F2F1F0" points=".376 469.371 .376 .169 95.28 .169 95.28 469.371"/><polygon id="Stroke-617" stroke="#072938" stroke-linecap="round" stroke-linejoin="round" stroke-width="9" points=".376 469.371 .376 .169 95.28 .169 95.28 469.371"/></g><g id="Group-622" transform="translate(0 18)"><polygon id="Fill-619" fill="#FFFFFF" points=".703 469.832 .703 .629 308.376 .629 308.376 469.832"/><polygon id="Stroke-621" stroke="#072938" stroke-linecap="round" stroke-linejoin="round" stroke-width="9" points=".703 469.832 .703 .629 308.376 .629 308.376 469.832"/></g><g id="Group-626" transform="translate(308 18)"><polygon id="Fill-623" fill="#F2F1F0" points=".376 469.832 .376 .629 95.28 .629 95.28 469.832"/><polygon id="Stroke-625" stroke="#072938" stroke-linecap="round" stroke-linejoin="round" stroke-width="9" points=".376 469.832 .376 .629 95.28 .629 95.28 469.832"/></g><path id="Stroke-627" stroke="#072938" stroke-linecap="round" stroke-linejoin="round" stroke-width="7.5" d="M246.84 118.62H62.24"/><path id="Stroke-629" stroke="#072938" stroke-linecap="round" stroke-linejoin="round" stroke-width="7.5" d="M246.84 172.47H62.24"/><path id="Stroke-631" stroke="#072938" stroke-linecap="round" stroke-linejoin="round" stroke-width="7.5" d="M246.84 226.3H62.24"/><path id="Stroke-633" stroke="#072938" stroke-linecap="round" stroke-linejoin="round" stroke-width="7.5" d="M246.84 280.15H62.24"/><path id="Stroke-635" stroke="#072938" stroke-linecap="round" stroke-linejoin="round" stroke-width="7.5" d="M246.84 334H62.24"/><path id="Stroke-637" stroke="#072938" stroke-linecap="round" stroke-linejoin="round" stroke-width="7.5" d="M246.84 387.84H62.24"/><path id="Stroke-639" stroke="#072938" stroke-linecap="round" stroke-linejoin="round" stroke-width="7.5" d="M208.38 80.16V426.3"/><path id="Stroke-641" stroke="#072938" stroke-linecap="round" stroke-linejoin="round" stroke-width="7.5" d="M154.54 80.16V426.3"/><path id="Stroke-643" stroke="#072938" stroke-linecap="round" stroke-linejoin="round" stroke-width="7.5" d="M100.7 80.16V426.3"/></g><g id="Group-650" stroke="#072938" stroke-linecap="round" stroke-linejoin="round" stroke-width="9" transform="translate(382 133)"><path id="Stroke-646" d="M21.28 203.3c11.6 0 21.02 4.71 21.02 10.51s-9.41 10.51-21.02 10.51c-11.6 0-21.02-4.7-21.02-10.5"/><path id="Stroke-648" d="M21.28.75c11.6 0 21.02 4.7 21.02 10.51 0 5.8-9.41 10.51-21.02 10.51-11.6 0-21.02-4.7-21.02-10.5"/></g><g id="Group-654" fill="#329DE7" font-family="OpenSans-Extrabold, Open Sans" font-size="34.87" font-weight="600" transform="translate(326 122)"><g id="Group-652"><text id="Før-1.-juli-2011" transform="rotate(90 24.313 128.953)"><tspan x="-103.69" y="142.45">Før 1. juli 2011</tspan></text></g></g></g></g></svg>