<svg xmlns="http://www.w3.org/2000/svg" viewBox="0 0 830 550"><g id="1a" fill="none" fill-rule="evenodd"><g id="Group-158" transform="rotate(-90 275.5 271)"><g><path id="Fill-1" fill="#072938" d="M450.52 249.73a10.26 10.26 0 1 1 0-20.51 10.26 10.26 0 0 1 0 20.5"/><g id="Group-5" transform="translate(292)"><polygon id="Fill-3" fill="#FFFFFF" points=".012 67.944 .012 .256 75.905 .256 75.905 67.944"/><polygon id="Stroke-4" stroke="#072938" stroke-linecap="round" stroke-linejoin="round" stroke-width="8" points=".012 67.944 .012 .256 75.905 .256 75.905 67.944"/></g><g id="Group-8" transform="translate(476)"><polygon id="Fill-6" fill="#FFFFFF" points=".616 54.611 .616 .256 66.253 .256 66.253 54.611"/><polygon id="Stroke-7" stroke="#072938" stroke-linecap="round" stroke-linejoin="round" stroke-width="8" points=".616 54.611 .616 .256 66.253 .256 66.253 54.611"/></g><g id="Group-11" transform="translate(459)"><polygon id="Fill-9" fill="#FFFFFF" points=".694 67.944 .694 .256 17.103 .256 17.103 67.944"/><polygon id="Stroke-10" stroke="#072938" stroke-linecap="round" stroke-linejoin="round" stroke-width="8" points=".694 67.944 .694 .256 17.103 .256 17.103 67.944"/></g><g id="Group-14" transform="translate(271)"><polygon id="Fill-12" fill="#FFFFFF" points=".5 59.739 .5 .256 21.012 .256 21.012 59.739"/><polygon id="Stroke-13" stroke="#072938" stroke-linecap="round" stroke-linejoin="round" stroke-width="8" points=".5 59.739 .5 .256 21.012 .256 21.012 59.739"/></g><path id="Fill-15" fill="#FFFFFF" d="M271.5 328.7V150.25h72.61A22.76 22.76 0 0 1 366.88 173v132.92a22.76 22.76 0 0 1-22.77 22.77H271.5z"/><path id="Stroke-16" stroke="#072938" stroke-linecap="round" stroke-linejoin="round" stroke-width="8" d="M271.5 328.7V150.25h72.61A22.76 22.76 0 0 1 366.88 173v132.92a22.76 22.76 0 0 1-22.77 22.77H271.5z"/><g id="Group-19" transform="translate(271 162)"><polygon id="Fill-17" fill="#FFFFFF" points="41.523 154.391 41.523 .554 .5 .554 .5 154.391"/><polygon id="Stroke-18" stroke="#072938" stroke-linecap="round" stroke-linejoin="round" stroke-width="8" points="41.523 154.391 41.523 .554 .5 .554 .5 154.391"/></g><path id="Fill-20" fill="#FFFFFF" d="M322.78 316.39v-70.76c0-3.4-2.76-6.16-6.15-6.16h-14.36v76.92h20.5z"/><path id="Stroke-21" stroke="#072938" stroke-linecap="round" stroke-linejoin="round" stroke-width="8" d="M322.78 316.39v-70.76c0-3.4-2.76-6.16-6.15-6.16h-14.36v76.92h20.5z"/><path id="Fill-22" fill="#FFFFFF" d="M322.78 233.32v-70.77h-20.51v76.92h14.36c3.4 0 6.15-2.75 6.15-6.15"/><path id="Stroke-23" stroke="#072938" stroke-linecap="round" stroke-linejoin="round" stroke-width="8" d="M322.78 233.32v-70.77h-20.51v76.92h14.36c3.4 0 6.15-2.75 6.15-6.15z"/><path id="Fill-24" fill="#FFFFFF" d="M333.03 341a12.3 12.3 0 0 0 0-24.61H271.5v20.51h52.38a12.26 12.26 0 0 0 9.15 4.1"/><path id="Stroke-25" stroke="#072938" stroke-linecap="round" stroke-linejoin="round" stroke-width="8" d="M333.03 341a12.3 12.3 0 0 0 0-24.61H271.5v20.51h52.38a12.26 12.26 0 0 0 9.15 4.1z"/><path id="Fill-26" fill="#FFFFFF" d="M333.03 137.94a12.3 12.3 0 0 1 0 24.61H271.5v-20.5h52.38a12.26 12.26 0 0 1 9.15-4.11"/><path id="Stroke-27" stroke="#072938" stroke-linecap="round" stroke-linejoin="round" stroke-width="8" d="M333.03 137.94a12.3 12.3 0 0 1 0 24.61H271.5v-20.5h52.38a12.26 12.26 0 0 1 9.15-4.11z"/><path id="Fill-28" fill="#FFFFFF" d="M449.4 264.66a26.43 26.43 0 0 0 0-50.37v50.37z"/><path id="Stroke-29" stroke="#072938" stroke-linecap="round" stroke-linejoin="round" stroke-width="8" d="M449.4 264.66a26.43 26.43 0 0 0 0-50.37v50.37z"/><path id="Stroke-30" stroke="#072938" stroke-linecap="round" stroke-linejoin="round" stroke-width="8" d="M542.25 240.14h-74.42"/><g id="Group-33" transform="translate(367 16)"><polygon id="Fill-31" fill="#FFFFFF" points="33.723 30.407 33.723 .665 .905 .665 .905 30.407"/><polygon id="Stroke-32" stroke="#072938" stroke-linecap="round" stroke-linejoin="round" stroke-width="8" points="33.723 30.407 33.723 .665 .905 .665 .905 30.407"/></g><g id="Group-36" transform="translate(367 34)"><polygon id="Fill-34" fill="#FFFFFF" points="21.416 20.611 21.416 .1 .905 .1 .905 20.611"/><polygon id="Stroke-35" stroke="#072938" stroke-linecap="round" stroke-linejoin="round" stroke-width="8" points="21.416 20.611 21.416 .1 .905 .1 .905 20.611"/></g><polygon id="Fill-37" fill="#ECF2F6" points="271.5 410.487 271.5 .256 .747 .256 .747 410.487"/><path id="Stroke-38" stroke="#072938" stroke-linecap="round" stroke-linejoin="round" stroke-width="8" d="M379.65 515.14l-39.94 7.08c-5.6 1-9.7 5.87-9.7 11.57v47.01"/><path id="Stroke-39" stroke="#072938" stroke-linecap="round" stroke-linejoin="round" stroke-width="8" d="M330.01 537.93l-57.64-14.38"/><path id="Stroke-40" stroke="#072938" stroke-linecap="round" stroke-linejoin="round" stroke-width="8" d="M330.01 564.34l-57.64 14.39"/><path id="Stroke-41" stroke="#072938" stroke-linecap="round" stroke-linejoin="round" stroke-width="8" d="M379.65 716.06l-39.94-7.08c-5.6-1-9.7-5.87-9.7-11.56V650.4"/><path id="Stroke-42" stroke="#072938" stroke-linecap="round" stroke-linejoin="round" stroke-width="8" d="M330.01 693.27l-57.64 14.39"/><path id="Stroke-43" stroke="#072938" stroke-linecap="round" stroke-linejoin="round" stroke-width="8" d="M330.01 666.86l-57.64-14.38"/><path id="Stroke-44" stroke="#072938" stroke-linecap="round" stroke-linejoin="round" stroke-width="8" d="M364.08 640.43l-91.71-52.22"/><path id="Stroke-45" stroke="#072938" stroke-linecap="round" stroke-linejoin="round" stroke-width="8" d="M364.08 590.77L272.37 643"/><path id="Stroke-46" stroke="#072938" stroke-linecap="round" stroke-linejoin="round" stroke-width="8" d="M364.08 558.07v115.07"/><path id="Stroke-47" stroke="#072938" stroke-linecap="round" stroke-linejoin="round" stroke-width="8" d="M309.96 532.93v36.66"/><path id="Stroke-48" stroke="#072938" stroke-linecap="round" stroke-linejoin="round" stroke-width="8" d="M309.96 661.86v36.42"/><g id="Group-51" transform="translate(133 745)"><polygon id="Fill-49" fill="#FFFFFF" points=".054 .274 .054 20.786 32.873 20.786 32.873 .274"/><polygon id="Stroke-50" stroke="#072938" stroke-linecap="round" stroke-linejoin="round" stroke-width="8" points=".054 .274 .054 20.786 32.873 20.786 32.873 .274"/></g><g id="Group-54" transform="translate(133 686)"><polygon id="Fill-52" fill="#FFFFFF" points=".054 .899 .054 21.411 32.873 21.411 32.873 .899"/><polygon id="Stroke-53" stroke="#072938" stroke-linecap="round" stroke-linejoin="round" stroke-width="8" points=".054 .899 .054 21.411 32.873 21.411 32.873 .899"/></g><g id="Group-57" transform="translate(199 676)"><polygon id="Fill-55" fill="#FFFFFF" points=".118 .644 .118 21.155 32.936 21.155 32.936 .644"/><polygon id="Stroke-56" stroke="#072938" stroke-linecap="round" stroke-linejoin="round" stroke-width="8" points=".118 .644 .118 21.155 32.936 21.155 32.936 .644"/></g><g id="Group-60" transform="translate(133 638)"><polygon id="Fill-58" fill="#FFFFFF" points=".054 .405 .054 20.916 32.873 20.916 32.873 .405"/><polygon id="Stroke-59" stroke="#072938" stroke-linecap="round" stroke-linejoin="round" stroke-width="8" points=".054 .405 .054 20.916 32.873 20.916 32.873 .405"/></g><g id="Group-63" transform="translate(0 745)"><polygon id="Fill-61" fill="#FFFFFF" points=".966 .274 .966 20.786 33.784 20.786 33.784 .274"/><polygon id="Stroke-62" stroke="#072938" stroke-linecap="round" stroke-linejoin="round" stroke-width="8" points=".966 .274 .966 20.786 33.784 20.786 33.784 .274"/></g><g id="Group-66" transform="translate(66 666)"><polygon id="Fill-64" fill="#FFFFFF" points=".989 .194 .989 41.41 33.808 41.41 33.808 .194"/><polygon id="Stroke-65" stroke="#072938" stroke-linecap="round" stroke-linejoin="round" stroke-width="8" points=".989 .194 .989 41.41 33.808 41.41 33.808 .194"/></g><g id="Group-69" transform="translate(66 629)"><polygon id="Fill-67" fill="#FFFFFF" points=".989 .273 .989 20.785 33.808 20.785 33.808 .273"/><polygon id="Stroke-68" stroke="#072938" stroke-linecap="round" stroke-linejoin="round" stroke-width="8" points=".989 .273 .989 20.785 33.808 20.785 33.808 .273"/></g><path id="Fill-70" fill="#FFFFFF" d="M23.05 697.15a22.08 22.08 0 1 0 0-44.16 22.08 22.08 0 0 0 0 44.16"/><path id="Stroke-71" stroke="#072938" stroke-linecap="round" stroke-linejoin="round" stroke-width="5.33" d="M23.05 697.15a22.08 22.08 0 1 0 0-44.16 22.08 22.08 0 0 0 0 44.16z"/><g id="Group-74" transform="translate(23 675)"><path id="Fill-72" fill="#FFFFFF" d="M.05.07c5.76 5.76 17.28 4.8 22.08 0"/><path id="Stroke-73" stroke="#072938" stroke-linecap="round" stroke-linejoin="round" stroke-width="5.33" d="M.05.07c5.76 5.76 17.28 4.8 22.08 0"/></g><g id="Group-77" transform="translate(11 675)"><path id="Fill-75" fill="#FFFFFF" d="M12.05.07C4.18 2.18-.75 12.64 1 19.2"/><path id="Stroke-76" stroke="#072938" stroke-linecap="round" stroke-linejoin="round" stroke-width="5.33" d="M12.05.07C4.18 2.18-.75 12.64 1 19.2"/></g><g id="Group-80" transform="translate(12 655)"><path id="Fill-78" fill="#FFFFFF" d="M11.05 20.07C13.15 12.2 6.55 2.7 0 .95"/><path id="Stroke-79" stroke="#072938" stroke-linecap="round" stroke-linejoin="round" stroke-width="5.33" d="M11.05 20.07C13.15 12.2 6.55 2.7 0 .95"/></g><g id="Group-83" transform="translate(26 653)"><path id="Fill-81" fill="#FFFFFF" d="M8.09 26.04C10.19 18.17 7.55 7.34.46.25"/><path id="Stroke-82" stroke="#072938" stroke-linecap="round" stroke-linejoin="round" stroke-width="5.33" d="M8.09 26.04C10.19 18.17 7.55 7.34.46.25"/></g><g id="Group-86" transform="translate(14 682)"><path id="Fill-84" fill="#FFFFFF" d="M.1.65c5.75 5.76 16.45 8.88 26.14 6.29"/><path id="Stroke-85" stroke="#072938" stroke-linecap="round" stroke-linejoin="round" stroke-width="5.33" d="M.1.65c5.75 5.76 16.45 8.88 26.14 6.29"/></g><g id="Group-89" transform="translate(2 663)"><path id="Fill-87" fill="#FFFFFF" d="M18.96.53C11.1 2.63 3.04 10.33.44 20.03"/><path id="Stroke-88" stroke="#072938" stroke-linecap="round" stroke-linejoin="round" stroke-width="5.33" d="M18.96.53C11.1 2.63 3.04 10.33.44 20.03"/></g><path id="Stroke-90" stroke="#072938" stroke-linecap="round" stroke-linejoin="round" stroke-width="8" d="M199.12 782.65v-171"/><path id="Stroke-91" stroke="#072938" stroke-linecap="round" stroke-linejoin="round" stroke-width="8" d="M66.99 782.65v-171"/><path id="Stroke-92" stroke="#072938" stroke-linecap="round" stroke-linejoin="round" stroke-width="8" d="M133.05 782.65v-171"/><path id="Stroke-93" stroke="#072938" stroke-linecap="round" stroke-linejoin="round" stroke-width="8" d="M206.11 611.66H.97"/><path id="Stroke-94" stroke="#072938" stroke-linecap="round" stroke-linejoin="round" stroke-width="8" d="M206.11 725.65H.97"/><path id="Stroke-95" stroke="#072938" stroke-linecap="round" stroke-linejoin="round" stroke-width="8" d="M206.11 784.25H.97"/><path id="Fill-96" fill="#FFFFFF" d="M.75 546.19v-3.29a7.65 7.65 0 0 1 7.65-7.65H206c19.8 0 23.75 9.3 23.75 9.3s-3.95 9.29-23.75 9.29H8.4a7.65 7.65 0 0 1-7.65-7.65"/><path id="Stroke-97" stroke="#072938" stroke-linecap="round" stroke-linejoin="round" stroke-width="8" d="M.75 546.19v-3.29a7.65 7.65 0 0 1 7.65-7.65H206c19.8 0 23.75 9.3 23.75 9.3s-3.95 9.29-23.75 9.29H8.4a7.65 7.65 0 0 1-7.65-7.65z"/><path id="Fill-98" fill="#FFFFFF" d="M.75 527.6v-3.28a7.65 7.65 0 0 1 7.65-7.65H206c19.8 0 23.75 9.29 23.75 9.29s-3.95 9.3-23.75 9.3H8.4a7.65 7.65 0 0 1-7.65-7.66"/><path id="Stroke-99" stroke="#072938" stroke-linecap="round" stroke-linejoin="round" stroke-width="8" d="M.75 527.6v-3.28a7.65 7.65 0 0 1 7.65-7.65H206c19.8 0 23.75 9.29 23.75 9.29s-3.95 9.3-23.75 9.3H8.4a7.65 7.65 0 0 1-7.65-7.66z"/><g id="Group-102" transform="translate(179 511)"><polygon id="Fill-100" fill="#FFFFFF" points=".381 47.688 .381 .818 16.79 .818 16.79 47.688"/><polygon id="Stroke-101" stroke="#072938" stroke-linecap="round" stroke-linejoin="round" stroke-width="8" points=".381 47.688 .381 .818 16.79 .818 16.79 47.688"/></g><g id="Group-105" transform="translate(53 511)"><polygon id="Fill-103" fill="#FFFFFF" points=".978 47.688 .978 .818 17.387 .818 17.387 47.688"/><polygon id="Stroke-104" stroke="#072938" stroke-linecap="round" stroke-linejoin="round" stroke-width="8" points=".978 47.688 .978 .818 17.387 .818 17.387 47.688"/></g><path id="Fill-106" fill="#FFFFFF" d="M.97 566.25v38.64c0 .2.14.38.34.42l5.53 1.08c.17.04.35-.04.44-.19l9.1-14.8a8.72 8.72 0 0 1 10.07-3.76l6.44 2.04 5.05-20.2L18 566.06a46 46 0 0 0-14.3-.2l-2.73.39z"/><path id="Stroke-107" stroke="#072938" stroke-linecap="round" stroke-linejoin="round" stroke-width="8" d="M.97 566.25v38.64c0 .2.14.38.34.42l5.53 1.08c.17.04.35-.04.44-.19l9.1-14.8a8.72 8.72 0 0 1 10.07-3.76l6.44 2.04 5.05-20.2L18 566.06a46 46 0 0 0-14.3-.2l-2.73.39z"/><path id="Stroke-108" stroke="#072938" stroke-linecap="round" stroke-linejoin="round" stroke-width="8" d="M17.76 589.68l-4-8.94"/><path id="Fill-109" fill="#FFFFFF" d="M.97 545.86v38.65c0 .2.14.37.34.41l5.53 1.1c.17.02.35-.05.44-.2l9.1-14.81a8.72 8.72 0 0 1 10.07-3.75l6.44 2.04 5.05-20.2L18 545.67a46.03 46.03 0 0 0-14.3-.2l-2.73.4z"/><path id="Stroke-110" stroke="#072938" stroke-linecap="round" stroke-linejoin="round" stroke-width="8" d="M.97 545.86v38.65c0 .2.14.37.34.41l5.53 1.1c.17.02.35-.05.44-.2l9.1-14.81a8.72 8.72 0 0 1 10.07-3.75l6.44 2.04 5.05-20.2L18 545.67a46.03 46.03 0 0 0-14.3-.2l-2.73.4z"/><path id="Stroke-111" stroke="#072938" stroke-linecap="round" stroke-linejoin="round" stroke-width="8" d="M17.76 569.3l-3.89-8.7"/><path id="Stroke-112" stroke="#072938" stroke-linecap="round" stroke-linejoin="round" stroke-width="8" d="M185.98 446.96l1.39 10.96"/><path id="Stroke-113" stroke="#072938" stroke-linecap="round" stroke-linejoin="round" stroke-width="8" d="M161.76 450.01l1.38 10.96"/><path id="Stroke-114" stroke="#072938" stroke-linecap="round" stroke-linejoin="round" stroke-width="8" d="M21.34 465.47l1.94 15.37"/><path id="Stroke-115" stroke="#072938" stroke-linecap="round" stroke-linejoin="round" stroke-width="8" d="M.75 475.87l185.93-23.43"/><path id="Stroke-116" stroke="#072938" stroke-linecap="round" stroke-linejoin="round" stroke-width="8" d="M187.45 500.86l-1.34 10.96"/><path id="Stroke-117" stroke="#072938" stroke-linecap="round" stroke-linejoin="round" stroke-width="8" d="M163.2 497.91l-1.33 10.97"/><path id="Stroke-118" stroke="#072938" stroke-linecap="round" stroke-linejoin="round" stroke-width="8" d="M23.25 478.68l-1.87 15.38"/><path id="Stroke-119" stroke="#072938" stroke-linecap="round" stroke-linejoin="round" stroke-width="8" d="M.75 483.75l186.03 22.59"/><path id="Fill-120" fill="#072938" d="M179.77 249.73a10.26 10.26 0 1 1 0-20.51 10.26 10.26 0 0 1 0 20.5"/><g id="Group-123" transform="translate(21)"><polygon id="Fill-121" fill="#FFFFFF" points=".259 67.944 .259 .256 76.152 .256 76.152 67.944"/><polygon id="Stroke-122" stroke="#072938" stroke-linecap="round" stroke-linejoin="round" stroke-width="8" points=".259 67.944 .259 .256 76.152 .256 76.152 67.944"/></g><g id="Group-126" transform="translate(205)"><polygon id="Fill-124" fill="#FFFFFF" points=".863 54.611 .863 .256 66.5 .256 66.5 54.611"/><polygon id="Stroke-125" stroke="#072938" stroke-linecap="round" stroke-linejoin="round" stroke-width="8" points=".863 54.611 .863 .256 66.5 .256 66.5 54.611"/></g><g id="Group-129" transform="translate(188)"><polygon id="Fill-127" fill="#FFFFFF" points=".941 67.944 .941 .256 17.35 .256 17.35 67.944"/><polygon id="Stroke-128" stroke="#072938" stroke-linecap="round" stroke-linejoin="round" stroke-width="8" points=".941 67.944 .941 .256 17.35 .256 17.35 67.944"/></g><g id="Group-132"><polygon id="Fill-130" fill="#FFFFFF" points=".747 59.739 .747 .256 21.259 .256 21.259 59.739"/><polygon id="Stroke-131" stroke="#072938" stroke-linecap="round" stroke-linejoin="round" stroke-width="8" points=".747 59.739 .747 .256 21.259 .256 21.259 59.739"/></g><path id="Fill-133" fill="#FFFFFF" d="M.75 328.7V150.25h72.61A22.76 22.76 0 0 1 96.13 173v132.92a22.76 22.76 0 0 1-22.77 22.77H.75z"/><path id="Stroke-134" stroke="#072938" stroke-linecap="round" stroke-linejoin="round" stroke-width="8" d="M.75 328.7V150.25h72.61A22.76 22.76 0 0 1 96.13 173v132.92a22.76 22.76 0 0 1-22.77 22.77H.75z"/><g id="Group-137" transform="translate(0 162)"><polygon id="Fill-135" fill="#FFFFFF" points="41.77 154.391 41.77 .554 .747 .554 .747 154.391"/><polygon id="Stroke-136" stroke="#072938" stroke-linecap="round" stroke-linejoin="round" stroke-width="8" points="41.77 154.391 41.77 .554 .747 .554 .747 154.391"/></g><path id="Fill-138" fill="#FFFFFF" d="M52.03 316.39v-70.76c0-3.4-2.76-6.16-6.16-6.16H31.51v76.92h20.52z"/><path id="Stroke-139" stroke="#072938" stroke-linecap="round" stroke-linejoin="round" stroke-width="8" d="M52.03 316.39v-70.76c0-3.4-2.76-6.16-6.16-6.16H31.51v76.92h20.52z"/><path id="Fill-140" fill="#FFFFFF" d="M52.03 233.32v-70.77H31.5v76.92h14.36c3.4 0 6.16-2.75 6.16-6.15"/><path id="Stroke-141" stroke="#072938" stroke-linecap="round" stroke-linejoin="round" stroke-width="8" d="M52.03 233.32v-70.77H31.5v76.92h14.36c3.4 0 6.16-2.75 6.16-6.15z"/><path id="Fill-142" fill="#FFFFFF" d="M62.28 341a12.3 12.3 0 0 0 0-24.61H.75v20.51h52.38a12.26 12.26 0 0 0 9.15 4.1"/><path id="Stroke-143" stroke="#072938" stroke-linecap="round" stroke-linejoin="round" stroke-width="8" d="M62.28 341a12.3 12.3 0 0 0 0-24.61H.75v20.51h52.38a12.26 12.26 0 0 0 9.15 4.1z"/><path id="Fill-144" fill="#FFFFFF" d="M62.28 137.94a12.3 12.3 0 0 1 0 24.61H.75v-20.5h52.38a12.26 12.26 0 0 1 9.15-4.11"/><path id="Stroke-145" stroke="#072938" stroke-linecap="round" stroke-linejoin="round" stroke-width="8" d="M62.28 137.94a12.3 12.3 0 0 1 0 24.61H.75v-20.5h52.38a12.26 12.26 0 0 1 9.15-4.11z"/><path id="Fill-146" fill="#FFFFFF" d="M178.65 264.66a26.43 26.43 0 0 0 0-50.37v50.37z"/><path id="Stroke-147" stroke="#072938" stroke-linecap="round" stroke-linejoin="round" stroke-width="8" d="M178.65 264.66a26.43 26.43 0 0 0 0-50.37v50.37z"/><path id="Stroke-148" stroke="#072938" stroke-linecap="round" stroke-linejoin="round" stroke-width="8" d="M271.5 240.14h-74.42"/><polygon id="Stroke-149" stroke="#072938" stroke-linecap="round" stroke-linejoin="round" stroke-width="8" points="542.253 820.719 542.253 .256 271.5 .256 271.5 820.719"/><polygon id="Stroke-150" stroke="#072938" stroke-linecap="round" stroke-linejoin="round" stroke-width="8" points="271.5 820.719 271.5 .256 .747 .256 .747 820.719"/><polygon id="Stroke-151" stroke="#329DE7" stroke-linecap="round" stroke-linejoin="round" stroke-width="8" points="271.5 410.487 271.5 .256 .747 .256 .747 410.487"/><g id="Group-154" transform="translate(97 16)"><polygon id="Fill-152" fill="#FFFFFF" points="32.97 30.407 32.97 .665 .152 .665 .152 30.407"/><polygon id="Stroke-153" stroke="#072938" stroke-linecap="round" stroke-linejoin="round" stroke-width="8" points="32.97 30.407 32.97 .665 .152 .665 .152 30.407"/></g><g id="Group-157" transform="translate(97 34)"><polygon id="Fill-155" fill="#FFFFFF" points="20.663 20.611 20.663 .1 .152 .1 .152 20.611"/><polygon id="Stroke-156" stroke="#072938" stroke-linecap="round" stroke-linejoin="round" stroke-width="8" points="20.663 20.611 20.663 .1 .152 .1 .152 20.611"/></g></g></g></g></svg>