<svg xmlns="http://www.w3.org/2000/svg" viewBox="0 0 830 550"><g id="1b" fill="none" fill-rule="evenodd"><g id="Group-319" transform="rotate(-90 275.5 271)"><g><path id="Fill-162" fill="#072938" d="M450.52 249.73a10.26 10.26 0 1 1 0-20.51 10.26 10.26 0 0 1 0 20.5"/><g id="Group-166" transform="translate(292)"><polygon id="Fill-164" fill="#FFFFFF" points=".012 67.944 .012 .256 75.905 .256 75.905 67.944"/><polygon id="Stroke-165" stroke="#072938" stroke-linecap="round" stroke-linejoin="round" stroke-width="8" points=".012 67.944 .012 .256 75.905 .256 75.905 67.944"/></g><g id="Group-169" transform="translate(476)"><polygon id="Fill-167" fill="#FFFFFF" points=".616 54.611 .616 .256 66.253 .256 66.253 54.611"/><polygon id="Stroke-168" stroke="#072938" stroke-linecap="round" stroke-linejoin="round" stroke-width="8" points=".616 54.611 .616 .256 66.253 .256 66.253 54.611"/></g><g id="Group-172" transform="translate(459)"><polygon id="Fill-170" fill="#FFFFFF" points=".694 67.944 .694 .256 17.103 .256 17.103 67.944"/><polygon id="Stroke-171" stroke="#072938" stroke-linecap="round" stroke-linejoin="round" stroke-width="8" points=".694 67.944 .694 .256 17.103 .256 17.103 67.944"/></g><g id="Group-175" transform="translate(271)"><polygon id="Fill-173" fill="#FFFFFF" points=".5 59.739 .5 .256 21.012 .256 21.012 59.739"/><polygon id="Stroke-174" stroke="#072938" stroke-linecap="round" stroke-linejoin="round" stroke-width="8" points=".5 59.739 .5 .256 21.012 .256 21.012 59.739"/></g><path id="Fill-176" fill="#FFFFFF" d="M271.5 704.83V526.38h72.61a22.76 22.76 0 0 1 22.77 22.76v132.92a22.76 22.76 0 0 1-22.77 22.77H271.5z"/><path id="Stroke-177" stroke="#072938" stroke-linecap="round" stroke-linejoin="round" stroke-width="8" d="M271.5 704.83V526.38h72.61a22.76 22.76 0 0 1 22.77 22.76v132.92a22.76 22.76 0 0 1-22.77 22.77H271.5z"/><g id="Group-180" transform="translate(271 538)"><polygon id="Fill-178" fill="#FFFFFF" points="41.523 154.522 41.523 .685 .5 .685 .5 154.522"/><polygon id="Stroke-179" stroke="#072938" stroke-linecap="round" stroke-linejoin="round" stroke-width="8" points="41.523 154.522 41.523 .685 .5 .685 .5 154.522"/></g><path id="Fill-181" fill="#FFFFFF" d="M322.78 692.52v-70.76c0-3.4-2.76-6.16-6.15-6.16h-14.36v76.92h20.5z"/><path id="Stroke-182" stroke="#072938" stroke-linecap="round" stroke-linejoin="round" stroke-width="8" d="M322.78 692.52v-70.76c0-3.4-2.76-6.16-6.15-6.16h-14.36v76.92h20.5z"/><path id="Fill-183" fill="#FFFFFF" d="M322.78 609.45v-70.77h-20.51v76.92h14.36c3.4 0 6.15-2.75 6.15-6.15"/><path id="Stroke-184" stroke="#072938" stroke-linecap="round" stroke-linejoin="round" stroke-width="8" d="M322.78 609.45v-70.77h-20.51v76.92h14.36c3.4 0 6.15-2.75 6.15-6.15z"/><path id="Fill-185" fill="#FFFFFF" d="M333.03 717.14a12.3 12.3 0 0 0 0-24.62H271.5v20.51h52.38a12.26 12.26 0 0 0 9.15 4.1"/><path id="Stroke-186" stroke="#072938" stroke-linecap="round" stroke-linejoin="round" stroke-width="8" d="M333.03 717.14a12.3 12.3 0 0 0 0-24.62H271.5v20.51h52.38a12.26 12.26 0 0 0 9.15 4.1z"/><path id="Fill-187" fill="#FFFFFF" d="M333.03 514.07a12.3 12.3 0 0 1 0 24.61H271.5v-20.5h52.38a12.26 12.26 0 0 1 9.15-4.1"/><path id="Stroke-188" stroke="#072938" stroke-linecap="round" stroke-linejoin="round" stroke-width="8" d="M333.03 514.07a12.3 12.3 0 0 1 0 24.61H271.5v-20.5h52.38a12.26 12.26 0 0 1 9.15-4.1z"/><path id="Fill-189" fill="#FFFFFF" d="M449.4 264.66a26.43 26.43 0 0 0 0-50.37v50.37z"/><path id="Stroke-190" stroke="#072938" stroke-linecap="round" stroke-linejoin="round" stroke-width="8" d="M449.4 264.66a26.43 26.43 0 0 0 0-50.37v50.37z"/><path id="Stroke-191" stroke="#072938" stroke-linecap="round" stroke-linejoin="round" stroke-width="8" d="M542.25 240.14h-74.42"/><g id="Group-194" transform="translate(367 16)"><polygon id="Fill-192" fill="#FFFFFF" points="33.723 30.407 33.723 .665 .905 .665 .905 30.407"/><polygon id="Stroke-193" stroke="#072938" stroke-linecap="round" stroke-linejoin="round" stroke-width="8" points="33.723 30.407 33.723 .665 .905 .665 .905 30.407"/></g><g id="Group-197" transform="translate(367 34)"><polygon id="Fill-195" fill="#FFFFFF" points="21.416 20.611 21.416 .1 .905 .1 .905 20.611"/><polygon id="Stroke-196" stroke="#072938" stroke-linecap="round" stroke-linejoin="round" stroke-width="8" points="21.416 20.611 21.416 .1 .905 .1 .905 20.611"/></g><polygon id="Fill-198" fill="#ECF2F6" points="271.5 410.487 271.5 .256 .747 .256 .747 410.487"/><path id="Stroke-199" stroke="#072938" stroke-linecap="round" stroke-linejoin="round" stroke-width="8" d="M379.65 139.01l-39.94 7.08c-5.6 1-9.7 5.87-9.7 11.57v47.01"/><path id="Stroke-200" stroke="#072938" stroke-linecap="round" stroke-linejoin="round" stroke-width="8" d="M330.01 161.8l-57.64-14.38"/><path id="Stroke-201" stroke="#072938" stroke-linecap="round" stroke-linejoin="round" stroke-width="8" d="M330.01 188.21l-57.64 14.39"/><path id="Stroke-202" stroke="#072938" stroke-linecap="round" stroke-linejoin="round" stroke-width="8" d="M379.65 339.93l-39.94-7.08c-5.6-1-9.7-5.87-9.7-11.57v-47"/><path id="Stroke-203" stroke="#072938" stroke-linecap="round" stroke-linejoin="round" stroke-width="8" d="M330.01 317.14l-57.64 14.39"/><path id="Stroke-204" stroke="#072938" stroke-linecap="round" stroke-linejoin="round" stroke-width="8" d="M330.01 290.73l-57.64-14.38"/><path id="Stroke-205" stroke="#072938" stroke-linecap="round" stroke-linejoin="round" stroke-width="8" d="M364.08 264.3l-91.71-52.22"/><path id="Stroke-206" stroke="#072938" stroke-linecap="round" stroke-linejoin="round" stroke-width="8" d="M364.08 214.64l-91.71 52.22"/><path id="Stroke-207" stroke="#072938" stroke-linecap="round" stroke-linejoin="round" stroke-width="8" d="M364.08 181.94V297"/><path id="Stroke-208" stroke="#072938" stroke-linecap="round" stroke-linejoin="round" stroke-width="8" d="M309.96 156.8v36.66"/><path id="Stroke-209" stroke="#072938" stroke-linecap="round" stroke-linejoin="round" stroke-width="8" d="M309.96 285.73v36.42"/><g id="Group-212" transform="translate(133 745)"><polygon id="Fill-210" fill="#FFFFFF" points=".054 .274 .054 20.786 32.873 20.786 32.873 .274"/><polygon id="Stroke-211" stroke="#072938" stroke-linecap="round" stroke-linejoin="round" stroke-width="8" points=".054 .274 .054 20.786 32.873 20.786 32.873 .274"/></g><g id="Group-215" transform="translate(133 686)"><polygon id="Fill-213" fill="#FFFFFF" points=".054 .899 .054 21.411 32.873 21.411 32.873 .899"/><polygon id="Stroke-214" stroke="#072938" stroke-linecap="round" stroke-linejoin="round" stroke-width="8" points=".054 .899 .054 21.411 32.873 21.411 32.873 .899"/></g><g id="Group-218" transform="translate(199 676)"><polygon id="Fill-216" fill="#FFFFFF" points=".118 .644 .118 21.155 32.936 21.155 32.936 .644"/><polygon id="Stroke-217" stroke="#072938" stroke-linecap="round" stroke-linejoin="round" stroke-width="8" points=".118 .644 .118 21.155 32.936 21.155 32.936 .644"/></g><g id="Group-221" transform="translate(133 638)"><polygon id="Fill-219" fill="#FFFFFF" points=".054 .405 .054 20.916 32.873 20.916 32.873 .405"/><polygon id="Stroke-220" stroke="#072938" stroke-linecap="round" stroke-linejoin="round" stroke-width="8" points=".054 .405 .054 20.916 32.873 20.916 32.873 .405"/></g><g id="Group-224" transform="translate(0 745)"><polygon id="Fill-222" fill="#FFFFFF" points=".966 .274 .966 20.786 33.784 20.786 33.784 .274"/><polygon id="Stroke-223" stroke="#072938" stroke-linecap="round" stroke-linejoin="round" stroke-width="8" points=".966 .274 .966 20.786 33.784 20.786 33.784 .274"/></g><g id="Group-227" transform="translate(66 666)"><polygon id="Fill-225" fill="#FFFFFF" points=".989 .194 .989 41.41 33.808 41.41 33.808 .194"/><polygon id="Stroke-226" stroke="#072938" stroke-linecap="round" stroke-linejoin="round" stroke-width="8" points=".989 .194 .989 41.41 33.808 41.41 33.808 .194"/></g><g id="Group-230" transform="translate(66 629)"><polygon id="Fill-228" fill="#FFFFFF" points=".989 .273 .989 20.785 33.808 20.785 33.808 .273"/><polygon id="Stroke-229" stroke="#072938" stroke-linecap="round" stroke-linejoin="round" stroke-width="8" points=".989 .273 .989 20.785 33.808 20.785 33.808 .273"/></g><path id="Fill-231" fill="#FFFFFF" d="M23.05 697.15a22.08 22.08 0 1 0 0-44.16 22.08 22.08 0 0 0 0 44.16"/><path id="Stroke-232" stroke="#072938" stroke-linecap="round" stroke-linejoin="round" stroke-width="5.33" d="M23.05 697.15a22.08 22.08 0 1 0 0-44.16 22.08 22.08 0 0 0 0 44.16z"/><g id="Group-235" transform="translate(23 675)"><path id="Fill-233" fill="#FFFFFF" d="M.05.07c5.76 5.76 17.28 4.8 22.08 0"/><path id="Stroke-234" stroke="#072938" stroke-linecap="round" stroke-linejoin="round" stroke-width="5.33" d="M.05.07c5.76 5.76 17.28 4.8 22.08 0"/></g><g id="Group-238" transform="translate(11 675)"><path id="Fill-236" fill="#FFFFFF" d="M12.05.07C4.18 2.18-.75 12.64 1 19.2"/><path id="Stroke-237" stroke="#072938" stroke-linecap="round" stroke-linejoin="round" stroke-width="5.33" d="M12.05.07C4.18 2.18-.75 12.64 1 19.2"/></g><g id="Group-241" transform="translate(12 655)"><path id="Fill-239" fill="#FFFFFF" d="M11.05 20.07C13.15 12.2 6.55 2.7 0 .95"/><path id="Stroke-240" stroke="#072938" stroke-linecap="round" stroke-linejoin="round" stroke-width="5.33" d="M11.05 20.07C13.15 12.2 6.55 2.7 0 .95"/></g><g id="Group-244" transform="translate(26 653)"><path id="Fill-242" fill="#FFFFFF" d="M8.09 26.04C10.19 18.17 7.55 7.34.46.25"/><path id="Stroke-243" stroke="#072938" stroke-linecap="round" stroke-linejoin="round" stroke-width="5.33" d="M8.09 26.04C10.19 18.17 7.55 7.34.46.25"/></g><g id="Group-247" transform="translate(14 682)"><path id="Fill-245" fill="#FFFFFF" d="M.1.65c5.75 5.76 16.45 8.88 26.14 6.29"/><path id="Stroke-246" stroke="#072938" stroke-linecap="round" stroke-linejoin="round" stroke-width="5.33" d="M.1.65c5.75 5.76 16.45 8.88 26.14 6.29"/></g><g id="Group-250" transform="translate(2 663)"><path id="Fill-248" fill="#FFFFFF" d="M18.96.53C11.1 2.63 3.04 10.33.44 20.03"/><path id="Stroke-249" stroke="#072938" stroke-linecap="round" stroke-linejoin="round" stroke-width="5.33" d="M18.96.53C11.1 2.63 3.04 10.33.44 20.03"/></g><path id="Stroke-251" stroke="#072938" stroke-linecap="round" stroke-linejoin="round" stroke-width="8" d="M199.12 782.65v-171"/><path id="Stroke-252" stroke="#072938" stroke-linecap="round" stroke-linejoin="round" stroke-width="8" d="M66.99 782.65v-171"/><path id="Stroke-253" stroke="#072938" stroke-linecap="round" stroke-linejoin="round" stroke-width="8" d="M133.05 782.65v-171"/><path id="Stroke-254" stroke="#072938" stroke-linecap="round" stroke-linejoin="round" stroke-width="8" d="M206.11 611.66H.97"/><path id="Stroke-255" stroke="#072938" stroke-linecap="round" stroke-linejoin="round" stroke-width="8" d="M206.11 725.65H.97"/><path id="Stroke-256" stroke="#072938" stroke-linecap="round" stroke-linejoin="round" stroke-width="8" d="M206.11 784.25H.97"/><path id="Fill-257" fill="#FFFFFF" d="M.75 546.19v-3.29a7.65 7.65 0 0 1 7.65-7.65H206c19.8 0 23.75 9.3 23.75 9.3s-3.95 9.29-23.75 9.29H8.4a7.65 7.65 0 0 1-7.65-7.65"/><path id="Stroke-258" stroke="#072938" stroke-linecap="round" stroke-linejoin="round" stroke-width="8" d="M.75 546.19v-3.29a7.65 7.65 0 0 1 7.65-7.65H206c19.8 0 23.75 9.3 23.75 9.3s-3.95 9.29-23.75 9.29H8.4a7.65 7.65 0 0 1-7.65-7.65z"/><path id="Fill-259" fill="#FFFFFF" d="M.75 527.6v-3.28a7.65 7.65 0 0 1 7.65-7.65H206c19.8 0 23.75 9.29 23.75 9.29s-3.95 9.3-23.75 9.3H8.4a7.65 7.65 0 0 1-7.65-7.66"/><path id="Stroke-260" stroke="#072938" stroke-linecap="round" stroke-linejoin="round" stroke-width="8" d="M.75 527.6v-3.28a7.65 7.65 0 0 1 7.65-7.65H206c19.8 0 23.75 9.29 23.75 9.29s-3.95 9.3-23.75 9.3H8.4a7.65 7.65 0 0 1-7.65-7.66z"/><g id="Group-263" transform="translate(179 511)"><polygon id="Fill-261" fill="#FFFFFF" points=".381 47.688 .381 .818 16.79 .818 16.79 47.688"/><polygon id="Stroke-262" stroke="#072938" stroke-linecap="round" stroke-linejoin="round" stroke-width="8" points=".381 47.688 .381 .818 16.79 .818 16.79 47.688"/></g><g id="Group-266" transform="translate(53 511)"><polygon id="Fill-264" fill="#FFFFFF" points=".978 47.688 .978 .818 17.387 .818 17.387 47.688"/><polygon id="Stroke-265" stroke="#072938" stroke-linecap="round" stroke-linejoin="round" stroke-width="8" points=".978 47.688 .978 .818 17.387 .818 17.387 47.688"/></g><path id="Fill-267" fill="#FFFFFF" d="M.97 566.25v38.64c0 .2.14.38.34.42l5.53 1.08c.17.04.35-.04.44-.19l9.1-14.8a8.72 8.72 0 0 1 10.07-3.76l6.44 2.04 5.05-20.2L18 566.06a46 46 0 0 0-14.3-.2l-2.73.39z"/><path id="Stroke-268" stroke="#072938" stroke-linecap="round" stroke-linejoin="round" stroke-width="8" d="M.97 566.25v38.64c0 .2.14.38.34.42l5.53 1.08c.17.04.35-.04.44-.19l9.1-14.8a8.72 8.72 0 0 1 10.07-3.76l6.44 2.04 5.05-20.2L18 566.06a46 46 0 0 0-14.3-.2l-2.73.39z"/><path id="Stroke-269" stroke="#072938" stroke-linecap="round" stroke-linejoin="round" stroke-width="8" d="M17.76 589.68l-4-8.94"/><path id="Fill-270" fill="#FFFFFF" d="M.97 545.86v38.65c0 .2.14.37.34.41l5.53 1.1c.17.02.35-.05.44-.2l9.1-14.81a8.72 8.72 0 0 1 10.07-3.75l6.44 2.04 5.05-20.2L18 545.67a46.03 46.03 0 0 0-14.3-.2l-2.73.4z"/><path id="Stroke-271" stroke="#072938" stroke-linecap="round" stroke-linejoin="round" stroke-width="8" d="M.97 545.86v38.65c0 .2.14.37.34.41l5.53 1.1c.17.02.35-.05.44-.2l9.1-14.81a8.72 8.72 0 0 1 10.07-3.75l6.44 2.04 5.05-20.2L18 545.67a46.03 46.03 0 0 0-14.3-.2l-2.73.4z"/><path id="Stroke-272" stroke="#072938" stroke-linecap="round" stroke-linejoin="round" stroke-width="8" d="M17.76 569.3l-3.89-8.7"/><path id="Stroke-273" stroke="#072938" stroke-linecap="round" stroke-linejoin="round" stroke-width="8" d="M185.98 446.96l1.39 10.96"/><path id="Stroke-274" stroke="#072938" stroke-linecap="round" stroke-linejoin="round" stroke-width="8" d="M161.76 450.01l1.38 10.96"/><path id="Stroke-275" stroke="#072938" stroke-linecap="round" stroke-linejoin="round" stroke-width="8" d="M21.34 465.47l1.94 15.37"/><path id="Stroke-276" stroke="#072938" stroke-linecap="round" stroke-linejoin="round" stroke-width="8" d="M.75 475.87l185.93-23.43"/><path id="Stroke-277" stroke="#072938" stroke-linecap="round" stroke-linejoin="round" stroke-width="8" d="M187.45 500.86l-1.34 10.96"/><path id="Stroke-278" stroke="#072938" stroke-linecap="round" stroke-linejoin="round" stroke-width="8" d="M163.2 497.91l-1.33 10.97"/><path id="Stroke-279" stroke="#072938" stroke-linecap="round" stroke-linejoin="round" stroke-width="8" d="M23.25 478.68l-1.87 15.38"/><path id="Stroke-280" stroke="#072938" stroke-linecap="round" stroke-linejoin="round" stroke-width="8" d="M.75 483.75l186.03 22.59"/><path id="Fill-281" fill="#072938" d="M179.77 249.73a10.26 10.26 0 1 1 0-20.51 10.26 10.26 0 0 1 0 20.5"/><g id="Group-284" transform="translate(21)"><polygon id="Fill-282" fill="#FFFFFF" points=".259 67.944 .259 .256 76.152 .256 76.152 67.944"/><polygon id="Stroke-283" stroke="#072938" stroke-linecap="round" stroke-linejoin="round" stroke-width="8" points=".259 67.944 .259 .256 76.152 .256 76.152 67.944"/></g><g id="Group-287" transform="translate(205)"><polygon id="Fill-285" fill="#FFFFFF" points=".863 54.611 .863 .256 66.5 .256 66.5 54.611"/><polygon id="Stroke-286" stroke="#072938" stroke-linecap="round" stroke-linejoin="round" stroke-width="8" points=".863 54.611 .863 .256 66.5 .256 66.5 54.611"/></g><g id="Group-290" transform="translate(188)"><polygon id="Fill-288" fill="#FFFFFF" points=".941 67.944 .941 .256 17.35 .256 17.35 67.944"/><polygon id="Stroke-289" stroke="#072938" stroke-linecap="round" stroke-linejoin="round" stroke-width="8" points=".941 67.944 .941 .256 17.35 .256 17.35 67.944"/></g><g id="Group-293"><polygon id="Fill-291" fill="#FFFFFF" points=".747 59.739 .747 .256 21.259 .256 21.259 59.739"/><polygon id="Stroke-292" stroke="#072938" stroke-linecap="round" stroke-linejoin="round" stroke-width="8" points=".747 59.739 .747 .256 21.259 .256 21.259 59.739"/></g><path id="Fill-294" fill="#FFFFFF" d="M.75 328.7V150.25h72.61A22.76 22.76 0 0 1 96.13 173v132.92a22.76 22.76 0 0 1-22.77 22.77H.75z"/><path id="Stroke-295" stroke="#072938" stroke-linecap="round" stroke-linejoin="round" stroke-width="8" d="M.75 328.7V150.25h72.61A22.76 22.76 0 0 1 96.13 173v132.92a22.76 22.76 0 0 1-22.77 22.77H.75z"/><g id="Group-298" transform="translate(0 162)"><polygon id="Fill-296" fill="#FFFFFF" points="41.77 154.391 41.77 .554 .747 .554 .747 154.391"/><polygon id="Stroke-297" stroke="#072938" stroke-linecap="round" stroke-linejoin="round" stroke-width="8" points="41.77 154.391 41.77 .554 .747 .554 .747 154.391"/></g><path id="Fill-299" fill="#FFFFFF" d="M52.03 316.39v-70.76c0-3.4-2.76-6.16-6.16-6.16H31.51v76.92h20.52z"/><path id="Stroke-300" stroke="#072938" stroke-linecap="round" stroke-linejoin="round" stroke-width="8" d="M52.03 316.39v-70.76c0-3.4-2.76-6.16-6.16-6.16H31.51v76.92h20.52z"/><path id="Fill-301" fill="#FFFFFF" d="M52.03 233.32v-70.77H31.5v76.92h14.36c3.4 0 6.16-2.75 6.16-6.15"/><path id="Stroke-302" stroke="#072938" stroke-linecap="round" stroke-linejoin="round" stroke-width="8" d="M52.03 233.32v-70.77H31.5v76.92h14.36c3.4 0 6.16-2.75 6.16-6.15z"/><path id="Fill-303" fill="#FFFFFF" d="M62.28 341a12.3 12.3 0 0 0 0-24.61H.75v20.51h52.38a12.26 12.26 0 0 0 9.15 4.1"/><path id="Stroke-304" stroke="#072938" stroke-linecap="round" stroke-linejoin="round" stroke-width="8" d="M62.28 341a12.3 12.3 0 0 0 0-24.61H.75v20.51h52.38a12.26 12.26 0 0 0 9.15 4.1z"/><path id="Fill-305" fill="#FFFFFF" d="M62.28 137.94a12.3 12.3 0 0 1 0 24.61H.75v-20.5h52.38a12.26 12.26 0 0 1 9.15-4.11"/><path id="Stroke-306" stroke="#072938" stroke-linecap="round" stroke-linejoin="round" stroke-width="8" d="M62.28 137.94a12.3 12.3 0 0 1 0 24.61H.75v-20.5h52.38a12.26 12.26 0 0 1 9.15-4.11z"/><path id="Fill-307" fill="#FFFFFF" d="M178.65 264.66a26.43 26.43 0 0 0 0-50.37v50.37z"/><path id="Stroke-308" stroke="#072938" stroke-linecap="round" stroke-linejoin="round" stroke-width="8" d="M178.65 264.66a26.43 26.43 0 0 0 0-50.37v50.37z"/><path id="Stroke-309" stroke="#072938" stroke-linecap="round" stroke-linejoin="round" stroke-width="8" d="M271.5 240.14h-74.42"/><polygon id="Stroke-310" stroke="#072938" stroke-linecap="round" stroke-linejoin="round" stroke-width="8" points="542.253 820.719 542.253 .256 271.5 .256 271.5 820.719"/><polygon id="Stroke-311" stroke="#072938" stroke-linecap="round" stroke-linejoin="round" stroke-width="8" points="271.5 820.719 271.5 .256 .747 .256 .747 820.719"/><polygon id="Stroke-312" stroke="#329DE7" stroke-linecap="round" stroke-linejoin="round" stroke-width="8" points="271.5 410.487 271.5 .256 .747 .256 .747 410.487"/><g id="Group-315" transform="translate(97 16)"><polygon id="Fill-313" fill="#FFFFFF" points="32.97 30.407 32.97 .665 .152 .665 .152 30.407"/><polygon id="Stroke-314" stroke="#072938" stroke-linecap="round" stroke-linejoin="round" stroke-width="8" points="32.97 30.407 32.97 .665 .152 .665 .152 30.407"/></g><g id="Group-318" transform="translate(97 34)"><polygon id="Fill-316" fill="#FFFFFF" points="20.663 20.611 20.663 .1 .152 .1 .152 20.611"/><polygon id="Stroke-317" stroke="#072938" stroke-linecap="round" stroke-linejoin="round" stroke-width="8" points="20.663 20.611 20.663 .1 .152 .1 .152 20.611"/></g></g></g></g></svg>