<svg xmlns="http://www.w3.org/2000/svg" viewBox="0 0 497 434"><g id="9b" fill="none" fill-rule="evenodd"><g transform="rotate(-90 217 212.5)"><g id="Group-690"><g id="Group-659"><polygon id="Fill-656" fill="#FFFFFF" points=".703 469.371 .703 .169 308.376 .169 308.376 469.371"/><polygon id="Stroke-658" stroke="#072938" stroke-linecap="round" stroke-linejoin="round" stroke-width="9" points=".703 469.371 .703 .169 308.376 .169 308.376 469.371"/></g><g id="Group-663" transform="translate(308)"><polygon id="Fill-660" fill="#F2F1F0" points=".376 469.371 .376 .169 95.28 .169 95.28 469.371"/><polygon id="Stroke-662" stroke="#072938" stroke-linecap="round" stroke-linejoin="round" stroke-width="9" points=".376 469.371 .376 .169 95.28 .169 95.28 469.371"/></g><g id="Group-667" transform="translate(0 18)"><polygon id="Fill-664" fill="#FFFFFF" points=".703 469.832 .703 .629 308.376 .629 308.376 469.832"/><polygon id="Stroke-666" stroke="#072938" stroke-linecap="round" stroke-linejoin="round" stroke-width="9" points=".703 469.832 .703 .629 308.376 .629 308.376 469.832"/></g><g id="Group-671" transform="translate(308 18)"><polygon id="Fill-668" fill="#F2F1F0" points=".376 469.832 .376 .629 95.28 .629 95.28 469.832"/><polygon id="Stroke-670" stroke="#072938" stroke-linecap="round" stroke-linejoin="round" stroke-width="9" points=".376 469.832 .376 .629 95.28 .629 95.28 469.832"/></g><path id="Stroke-672" stroke="#072938" stroke-linecap="round" stroke-linejoin="round" stroke-width="7.5" d="M246.84 118.62H62.24"/><path id="Stroke-674" stroke="#072938" stroke-linecap="round" stroke-linejoin="round" stroke-width="7.5" d="M246.84 172.47H62.24"/><path id="Stroke-676" stroke="#072938" stroke-linecap="round" stroke-linejoin="round" stroke-width="7.5" d="M246.84 226.3H62.24"/><path id="Stroke-678" stroke="#072938" stroke-linecap="round" stroke-linejoin="round" stroke-width="7.5" d="M246.84 280.15H62.24"/><path id="Stroke-680" stroke="#072938" stroke-linecap="round" stroke-linejoin="round" stroke-width="7.5" d="M246.84 334H62.24"/><path id="Stroke-682" stroke="#072938" stroke-linecap="round" stroke-linejoin="round" stroke-width="7.5" d="M246.84 387.84H62.24"/><path id="Stroke-684" stroke="#072938" stroke-linecap="round" stroke-linejoin="round" stroke-width="7.5" d="M208.38 80.16V426.3"/><path id="Stroke-686" stroke="#072938" stroke-linecap="round" stroke-linejoin="round" stroke-width="7.5" d="M154.54 80.16V426.3"/><path id="Stroke-688" stroke="#072938" stroke-linecap="round" stroke-linejoin="round" stroke-width="7.5" d="M100.7 80.16V426.3"/></g><g id="Group-695" stroke="#072938" stroke-linecap="round" stroke-linejoin="round" stroke-width="9" transform="translate(382 133)"><path id="Stroke-691" d="M21.28 203.3c11.6 0 21.02 4.71 21.02 10.51s-9.41 10.51-21.02 10.51c-11.6 0-21.02-4.7-21.02-10.5"/><path id="Stroke-693" d="M21.28.75c11.6 0 21.02 4.7 21.02 10.51 0 5.8-9.41 10.51-21.02 10.51-11.6 0-21.02-4.7-21.02-10.5"/></g><g id="Group-699" fill="#329DE7" font-family="OpenSans-Extrabold, Open Sans" font-size="34.87" font-weight="600" transform="translate(325 57)"><g id="Group-697"><text id="Fra-og-med-1.-juli-2011" transform="rotate(90 24.415 197.412)"><tspan x="-172.59" y="210.91">Fra og med 1. juli 2011</tspan></text></g></g></g></g></svg>