<svg xmlns="http://www.w3.org/2000/svg" viewBox="0 0 831 444"><g id="10a" fill="none" fill-rule="evenodd"><g transform="translate(4 3)"><g id="illustrasjoner-bruksendring" transform="rotate(-90 168 167.5)"><g id="Group-709" fill="#F2F1F0" transform="translate(171 654)"><polygon id="Fill-707" points=".602 167.642 163.054 167.642 163.054 .267 .602 .267"/></g><g id="Group-773"><polygon id="Stroke-710" stroke="#072938" stroke-linecap="round" stroke-linejoin="round" stroke-width="8" points="171.602 654.268 334.054 654.268 334.054 821.642 171.602 821.642"/><path id="Fill-712" fill="#072938" d="M273.63 744.1a6.15 6.15 0 1 1 0-12.3 6.15 6.15 0 0 1 0 12.3"/><path id="Fill-714" fill="#FFFFFF" d="M274.73 757.65a20.66 20.66 0 0 0 0-39.39v39.39z"/><path id="Stroke-715" stroke="#072938" stroke-linecap="round" stroke-linejoin="round" stroke-width="8" d="M274.73 757.65a20.66 20.66 0 0 0 0-39.39v39.39z"/><path id="Stroke-716" stroke="#072938" stroke-linecap="round" stroke-linejoin="round" stroke-width="8" d="M333.8 738.35h-44.66"/><path id="Stroke-717" stroke="#072938" stroke-linecap="round" stroke-linejoin="round" stroke-width="8" d="M236.23 677.68l-23.96 4.25a7.05 7.05 0 0 0-5.82 6.94v28.2"/><path id="Stroke-718" stroke="#072938" stroke-linecap="round" stroke-linejoin="round" stroke-width="8" d="M206.45 691.35l-34.59-8.63"/><path id="Stroke-719" stroke="#072938" stroke-linecap="round" stroke-linejoin="round" stroke-width="8" d="M206.45 707.2l-34.59 8.63"/><path id="Stroke-720" stroke="#072938" stroke-linecap="round" stroke-linejoin="round" stroke-width="8" d="M236.23 798.23l-23.96-4.25a7.05 7.05 0 0 1-5.82-6.94v-28.2"/><path id="Stroke-721" stroke="#072938" stroke-linecap="round" stroke-linejoin="round" stroke-width="8" d="M206.45 784.56l-34.59 8.63"/><path id="Stroke-722" stroke="#072938" stroke-linecap="round" stroke-linejoin="round" stroke-width="8" d="M206.45 768.71l-34.59-8.63"/><path id="Stroke-723" stroke="#072938" stroke-linecap="round" stroke-linejoin="round" stroke-width="8" d="M226.9 752.85l-55.04-31.33"/><path id="Stroke-724" stroke="#072938" stroke-linecap="round" stroke-linejoin="round" stroke-width="8" d="M226.9 723.06l-55.04 31.33"/><path id="Stroke-725" stroke="#072938" stroke-linecap="round" stroke-linejoin="round" stroke-width="8" d="M226.9 703.43v69.05"/><path id="Stroke-726" stroke="#072938" stroke-linecap="round" stroke-linejoin="round" stroke-width="8" d="M189.22 688.35v22"/><path id="Stroke-727" stroke="#072938" stroke-linecap="round" stroke-linejoin="round" stroke-width="8" d="M189.22 765.7v21.86"/><g id="Group-730" transform="translate(0 654)"><polygon id="Fill-728" fill="#ECF2F6" points="163.398 167.642 163.398 .268 .946 .268 .946 167.642"/><polygon id="Stroke-729" stroke="#329DE7" stroke-linecap="round" stroke-linejoin="round" stroke-width="8" points="163.398 167.642 163.398 .268 .946 .268 .946 167.642"/></g><g id="Group-733"><polygon id="Fill-731" fill="#F2F1F0" points="163.398 167.733 163.398 .358 .946 .358 .946 167.733"/><polygon id="Stroke-732" stroke="#072938" stroke-linecap="round" stroke-linejoin="round" stroke-width="8" points="163.398 167.733 163.398 .358 .946 .358 .946 167.733"/></g><path id="Fill-734" fill="#072938" d="M102.97 90.2a6.15 6.15 0 1 1 0-12.3 6.15 6.15 0 0 1 0 12.3"/><path id="Fill-735" fill="#FFFFFF" d="M104.08 103.74a20.66 20.66 0 0 0 0-39.39v39.39z"/><path id="Stroke-736" stroke="#072938" stroke-linecap="round" stroke-linejoin="round" stroke-width="8" d="M104.08 103.74a20.66 20.66 0 0 0 0-39.39v39.39z"/><path id="Stroke-737" stroke="#072938" stroke-linecap="round" stroke-linejoin="round" stroke-width="8" d="M163.14 84.45h-44.65"/><path id="Stroke-738" stroke="#072938" stroke-linecap="round" stroke-linejoin="round" stroke-width="8" d="M65.58 23.77L41.6 28.02a7.05 7.05 0 0 0-5.82 6.94v28.2"/><path id="Stroke-739" stroke="#072938" stroke-linecap="round" stroke-linejoin="round" stroke-width="8" d="M35.8 37.44L1.2 28.81"/><path id="Stroke-740" stroke="#072938" stroke-linecap="round" stroke-linejoin="round" stroke-width="8" d="M35.8 53.29L1.2 61.92"/><path id="Stroke-741" stroke="#072938" stroke-linecap="round" stroke-linejoin="round" stroke-width="8" d="M65.58 144.32l-23.97-4.25a7.05 7.05 0 0 1-5.82-6.94v-28.2"/><path id="Stroke-742" stroke="#072938" stroke-linecap="round" stroke-linejoin="round" stroke-width="8" d="M35.8 130.65l-34.6 8.63"/><path id="Stroke-743" stroke="#072938" stroke-linecap="round" stroke-linejoin="round" stroke-width="8" d="M35.8 114.8l-34.6-8.63"/><path id="Stroke-744" stroke="#072938" stroke-linecap="round" stroke-linejoin="round" stroke-width="8" d="M56.24 98.94L1.2 67.61"/><path id="Stroke-745" stroke="#072938" stroke-linecap="round" stroke-linejoin="round" stroke-width="8" d="M56.24 69.15L1.2 100.48"/><path id="Stroke-746" stroke="#072938" stroke-linecap="round" stroke-linejoin="round" stroke-width="8" d="M56.24 49.52v69.05"/><path id="Stroke-747" stroke="#072938" stroke-linecap="round" stroke-linejoin="round" stroke-width="8" d="M18.56 34.44v22"/><path id="Stroke-748" stroke="#072938" stroke-linecap="round" stroke-linejoin="round" stroke-width="8" d="M18.56 111.8v21.85"/><g id="Group-751" transform="translate(171)"><polygon id="Fill-749" fill="#ECF2F6" points="163.054 167.733 163.054 .358 .602 .358 .602 167.733"/><polygon id="Stroke-750" stroke="#329DE7" stroke-linecap="round" stroke-linejoin="round" stroke-width="8" points="163.054 167.733 163.054 .358 .602 .358 .602 167.733"/></g><g id="Group-754" transform="translate(86 415)"><polygon id="Fill-752" fill="#F2F1F0" points="162.726 167.477 162.726 .102 .274 .102 .274 167.477"/><polygon id="Stroke-753" stroke="#072938" stroke-linecap="round" stroke-linejoin="round" stroke-width="8" points="162.726 167.477 162.726 .102 .274 .102 .274 167.477"/></g><path id="Fill-755" fill="#072938" d="M188.3 504.94a6.15 6.15 0 1 1 0-12.3 6.15 6.15 0 0 1 0 12.3"/><path id="Fill-756" fill="#FFFFFF" d="M189.4 518.48a20.66 20.66 0 0 0 0-39.38v39.38z"/><path id="Stroke-757" stroke="#072938" stroke-linecap="round" stroke-linejoin="round" stroke-width="8" d="M189.4 518.48a20.66 20.66 0 0 0 0-39.38v39.38z"/><path id="Stroke-758" stroke="#072938" stroke-linecap="round" stroke-linejoin="round" stroke-width="8" d="M248.47 499.19H203.8"/><path id="Stroke-759" stroke="#072938" stroke-linecap="round" stroke-linejoin="round" stroke-width="8" d="M150.9 438.51l-23.96 4.25a7.05 7.05 0 0 0-5.82 6.94v28.2"/><path id="Stroke-760" stroke="#072938" stroke-linecap="round" stroke-linejoin="round" stroke-width="8" d="M121.12 452.19l-34.59-8.63"/><path id="Stroke-761" stroke="#072938" stroke-linecap="round" stroke-linejoin="round" stroke-width="8" d="M121.12 468.03l-34.59 8.63"/><path id="Stroke-762" stroke="#072938" stroke-linecap="round" stroke-linejoin="round" stroke-width="8" d="M150.9 559.06l-23.96-4.24a7.05 7.05 0 0 1-5.82-6.94v-28.21"/><path id="Stroke-763" stroke="#072938" stroke-linecap="round" stroke-linejoin="round" stroke-width="8" d="M121.12 545.4l-34.59 8.62"/><path id="Stroke-764" stroke="#072938" stroke-linecap="round" stroke-linejoin="round" stroke-width="8" d="M121.12 529.55l-34.59-8.63"/><path id="Stroke-765" stroke="#072938" stroke-linecap="round" stroke-linejoin="round" stroke-width="8" d="M141.56 513.69l-55.03-31.34"/><path id="Stroke-766" stroke="#072938" stroke-linecap="round" stroke-linejoin="round" stroke-width="8" d="M141.56 483.9l-55.03 31.33"/><path id="Stroke-767" stroke="#072938" stroke-linecap="round" stroke-linejoin="round" stroke-width="8" d="M141.56 464.27v69.04"/><path id="Stroke-768" stroke="#072938" stroke-linecap="round" stroke-linejoin="round" stroke-width="8" d="M103.9 449.18v22"/><path id="Stroke-769" stroke="#072938" stroke-linecap="round" stroke-linejoin="round" stroke-width="8" d="M103.9 526.54v21.86"/><g id="Group-772" transform="translate(86 239)"><polygon id="Fill-770" fill="#ECF2F6" points="162.726 167.898 162.726 .523 .274 .523 .274 167.898"/><polygon id="Stroke-771" stroke="#329DE7" stroke-linecap="round" stroke-linejoin="round" stroke-width="8" points="162.726 167.898 162.726 .523 .274 .523 .274 167.898"/></g></g></g><text id="Ved-siden-av-hovedde" fill="#329DE7" font-family="OpenSans-Semibold, Open Sans" font-size="24.61" font-weight="500"><tspan x="354.14" y="407">Ved siden </tspan> <tspan x="339.96" y="440">av hoveddel</tspan></text><text id="Over-hoveddel" fill="#329DE7" font-family="OpenSans-Semibold, Open Sans" font-size="24.61" font-weight="500"><tspan x="59.83" y="407">Over </tspan> <tspan x="33.88" y="440">hoveddel</tspan></text><text id="Under-hoveddel" fill="#329DE7" font-family="OpenSans-Semibold, Open Sans" font-size="24.61" font-weight="500"><tspan x="711.49" y="407">Under </tspan> <tspan x="693.88" y="440">hoveddel</tspan></text></g></g></svg>