<svg xmlns="http://www.w3.org/2000/svg" viewBox="0 0 288 576"><g id="10b" fill="none" fill-rule="evenodd"><g transform="translate(4 3)"><g id="illustrasjoner-bruksendring" transform="rotate(-90 284.5 284)"><polygon id="Fill-776" fill="#F2F1F0" points="279.398 278.991 279.398 .034 .44 .034 .44 278.991"/><g id="Group-800"><polygon id="Stroke-778" stroke="#072938" stroke-linecap="round" stroke-linejoin="round" stroke-width="8" points=".44 .034 279.398 .034 279.398 278.992 .44 278.992"/><path id="Fill-780" fill="#FFFFFF" d="M177.35 151.82a12.82 12.82 0 1 1 0-25.64 12.82 12.82 0 0 1 0 25.64"/><path id="Stroke-782" stroke="#072938" stroke-linecap="round" stroke-linejoin="round" stroke-width="8" d="M177.35 151.82a12.82 12.82 0 1 1 0-25.64 12.82 12.82 0 0 1 0 25.64z"/><path id="Fill-783" fill="#FFFFFF" d="M177.87 172.81a35.48 35.48 0 0 0 0-67.62v67.62z"/><path id="Stroke-784" stroke="#072938" stroke-linecap="round" stroke-linejoin="round" stroke-width="8" d="M177.87 172.81a35.48 35.48 0 0 0 0-67.62v67.62z"/><path id="Stroke-785" stroke="#072938" stroke-linecap="round" stroke-linejoin="round" stroke-width="8" d="M279.4 139.51h-76.92"/><path id="Stroke-786" stroke="#072938" stroke-linecap="round" stroke-linejoin="round" stroke-width="8" d="M111.07 35.5L69.9 42.8a12.1 12.1 0 0 0-9.99 11.9v48.92"/><path id="Stroke-787" stroke="#072938" stroke-linecap="round" stroke-linejoin="round" stroke-width="8" d="M59.92 58.89L.9 44.16"/><path id="Stroke-788" stroke="#072938" stroke-linecap="round" stroke-linejoin="round" stroke-width="8" d="M59.92 86.28L.9 101"/><path id="Stroke-789" stroke="#072938" stroke-linecap="round" stroke-linejoin="round" stroke-width="8" d="M111.07 242.5l-41.16-7.3a12.1 12.1 0 0 1-9.99-11.9v-48.92"/><path id="Stroke-790" stroke="#072938" stroke-linecap="round" stroke-linejoin="round" stroke-width="8" d="M59.92 219.11L.9 233.84"/><path id="Stroke-791" stroke="#072938" stroke-linecap="round" stroke-linejoin="round" stroke-width="8" d="M59.92 191.72L.9 177"/><path id="Stroke-792" stroke="#072938" stroke-linecap="round" stroke-linejoin="round" stroke-width="8" d="M95.82 164.83L.89 110.78"/><path id="Stroke-793" stroke="#072938" stroke-linecap="round" stroke-linejoin="round" stroke-width="8" d="M95.82 113.17L.89 167.22"/><path id="Stroke-794" stroke="#072938" stroke-linecap="round" stroke-linejoin="round" stroke-width="8" d="M95.82 80.03v117.94"/><path id="Stroke-795" stroke="#072938" stroke-linecap="round" stroke-linejoin="round" stroke-width="8" d="M30.18 51.47v42.17"/><path id="Stroke-796" stroke="#072938" stroke-linecap="round" stroke-linejoin="round" stroke-width="8" d="M30.18 184.3v42.18"/><g id="Group-799" transform="translate(287)"><polygon id="Fill-797" fill="#ECF2F6" points="279.56 278.992 279.56 .034 .602 .034 .602 278.992"/><polygon id="Stroke-798" stroke="#329DE7" stroke-linecap="round" stroke-linejoin="round" stroke-width="8" points="279.56 278.992 279.56 .034 .602 .034 .602 278.992"/></g></g></g><text id="Over-hoveddel" fill="#329DE7" font-family="OpenSans-Semibold, Open Sans" font-size="24.61" font-weight="500"><tspan x="110.83" y="136">Over </tspan> <tspan x="84.88" y="169">hoveddel</tspan></text></g></g></svg>