<svg xmlns="http://www.w3.org/2000/svg" viewBox="0 0 459 403"><g id="12a" fill="none" fill-rule="evenodd"><g transform="rotate(-90 201.5 197)"><g id="Group-873"><path id="Fill-868" fill="#329DE7" d="M386 239.21L25 447.64A16.41 16.41 0 0 1 .38 433.43V16.57A16.4 16.4 0 0 1 25 2.37l361 208.42a16.4 16.4 0 0 1 0 28.42"/><path id="Stroke-870" stroke="#072938" stroke-linecap="round" stroke-linejoin="round" stroke-width="8" d="M386 239.21L25 447.64A16.41 16.41 0 0 1 .38 433.43V16.57A16.4 16.4 0 0 1 25 2.37l361 208.42a16.4 16.4 0 0 1 0 28.42z"/><polygon id="Fill-871" fill="#ECF2F6" points="41.407 390.793 328.569 225 41.407 59.207"/><polygon id="Stroke-872" stroke="#072938" stroke-linecap="round" stroke-linejoin="round" stroke-width="8" points="41.407 390.793 328.57 225 41.407 59.207"/></g><path id="Stroke-875" fill="#329DE7" stroke="#072938" stroke-linecap="round" stroke-linejoin="round" stroke-width="8" d="M227.31 242.34v-34.48l-97.36 5.08v24.32l97.36 5.08zm-143.95-30.3c-2.95 3.06-4.43 7.38-4.43 12.96 0 5.45 1.5 9.7 4.53 12.76 3.02 3.05 7.16 4.58 12.4 4.58 5.45 0 9.64-1.5 12.56-4.53 2.93-3.03 4.39-7.3 4.39-12.8 0-5.72-1.43-10.07-4.29-13.06-2.85-3-7.07-4.49-12.65-4.49-5.38 0-9.55 1.53-12.5 4.59z"/></g></g></svg>