<svg xmlns="http://www.w3.org/2000/svg" xmlns:xlink="http://www.w3.org/1999/xlink" viewBox="0 0 843 576"><defs><polygon id="path-1" points=".338 0 574.662 0 574.662 842 .338 842"/><polygon id="path-3" points=".194 .191 184.56 .191 184.56 319.519 .194 319.519"/><polygon id="path-5" points=".019 .587 87.031 .587 87.031 89.436 .019 89.436"/><polygon id="path-7" points=".338 842 .338 0 574.662 0 574.662 842"/><polygon id="path-9" points=".338 0 492.232 0 492.232 842 .338 842"/></defs><g id="17b" fill="none" fill-rule="evenodd"><g transform="rotate(-90 288 287.5)"><g id="Group-1528"><mask id="mask-2" fill="white"><use xlink:href="#path-1"/></mask><polygon id="Fill-1516" fill="#D7D4D1" points=".338 0 .338 842 574.662 842 574.662 0" mask="url(#mask-2)"/><polygon id="Fill-1518" fill="#F0F2CB" points="213.793 434.768 162.515 345.95 366.35 345.95 417.629 434.768" mask="url(#mask-2)"/><polygon id="Stroke-1519" stroke="#072938" stroke-linecap="round" stroke-linejoin="round" stroke-width="8" points="213.793 434.768 162.515 345.95 366.35 345.95 417.629 434.768" mask="url(#mask-2)"/><polygon id="Fill-1520" fill="#ECF2F6" points="162.515 345.95 111.236 257.132 315.071 257.132 366.35 345.95" mask="url(#mask-2)"/><polygon id="Stroke-1521" stroke="#072938" stroke-linecap="round" stroke-linejoin="round" stroke-width="8" points="162.515 345.95 111.236 257.132 315.072 257.132 366.35 345.95" mask="url(#mask-2)"/><polygon id="Fill-1522" fill="#ECF2F6" points="417.629 434.768 366.35 345.95 468.268 345.95 519.547 434.768" mask="url(#mask-2)"/><polygon id="Stroke-1523" stroke="#072938" stroke-linecap="round" stroke-linejoin="round" stroke-width="8" points="417.629 434.768 366.35 345.95 468.268 345.95 519.547 434.768" mask="url(#mask-2)"/><polygon id="Fill-1524" fill="#ECF2F6" points="366.35 345.95 315.071 257.132 416.989 257.132 468.268 345.95" mask="url(#mask-2)"/><polygon id="Stroke-1525" stroke="#072938" stroke-linecap="round" stroke-linejoin="round" stroke-width="8" points="366.35 345.95 315.071 257.132 416.989 257.132 468.268 345.95" mask="url(#mask-2)"/><polygon id="Fill-1526" fill="#D7D4D1" points="65.745 231.191 234.56 523.586 219.018 550.519 50.194 258.106" mask="url(#mask-2)"/><polygon id="Stroke-1527" stroke="#072938" stroke-linecap="round" stroke-linejoin="round" stroke-width="8" points="65.745 231.191 234.56 523.586 219.018 550.519 50.194 258.106" mask="url(#mask-2)"/></g><g id="Group-1531" transform="translate(50 231)"><mask id="mask-4" fill="white"><use xlink:href="#path-3"/></mask><polygon id="Fill-1529" fill="#072938" fill-opacity=".2" points="15.745 .191 184.56 292.586 169.018 319.519 .194 27.106" mask="url(#mask-4)"/></g><g id="Group-1535" transform="translate(219 523)"><polygon id="Fill-1532" fill="#D7D4D1" points=".019 27.519 15.56 .586 87.032 .586 35.76 89.437"/><polygon id="Stroke-1534" stroke="#072938" stroke-linecap="round" stroke-linejoin="round" stroke-width="8" points=".019 27.519 15.56 .586 87.032 .586 35.76 89.437"/></g><g id="Group-1538" transform="translate(219 523)"><mask id="mask-6" fill="white"><use xlink:href="#path-5"/></mask><polygon id="Fill-1536" fill="#072938" fill-opacity=".4" points=".019 27.519 15.56 .586 87.032 .586 35.76 89.437" mask="url(#mask-6)"/></g><g id="Group-1556"><path id="Stroke-1539" stroke="#072938" stroke-linecap="round" stroke-linejoin="round" stroke-width="8" d="M269.77 319.74l-61.95-35.92"/><path id="Stroke-1541" stroke="#072938" stroke-linecap="round" stroke-linejoin="round" stroke-width="8" d="M264.58 298.9l-26.8-15.55"/><path id="Stroke-1543" stroke="#072938" stroke-linecap="round" stroke-linejoin="round" stroke-width="8" d="M422.64 319.74l-61.94-35.92"/><path id="Stroke-1545" stroke="#072938" stroke-linecap="round" stroke-linejoin="round" stroke-width="8" d="M417.46 298.9l-26.81-15.55"/><mask id="mask-8" fill="white"><use xlink:href="#path-7"/></mask><polygon id="Fill-1547" fill="#ECF2F6" points="162.515 523.586 213.793 434.768 417.629 434.768 366.35 523.586" mask="url(#mask-8)"/><polygon id="Stroke-1549" stroke="#072938" stroke-linecap="round" stroke-linejoin="round" stroke-width="8" points="162.515 523.586 213.794 434.768 417.629 434.768 366.35 523.586" mask="url(#mask-8)"/><polygon id="Fill-1550" fill="#D7D4D1" points="213.793 434.768 223.242 418.359 408.156 418.359 417.629 434.768" mask="url(#mask-8)"/><polygon id="Stroke-1551" stroke="#072938" stroke-linecap="round" stroke-linejoin="round" stroke-width="8" points="213.793 434.768 223.242 418.359 408.156 418.359 417.629 434.768" mask="url(#mask-8)"/><polygon id="Fill-1552" fill="#D7D4D1" points="162.515 345.95 181.45 345.95 223.242 418.359 213.793 434.769" mask="url(#mask-8)"/><polygon id="Stroke-1553" stroke="#072938" stroke-linecap="round" stroke-linejoin="round" stroke-width="8" points="162.515 345.95 181.45 345.95 223.242 418.359 213.794 434.769" mask="url(#mask-8)"/><path id="Stroke-1554" stroke="#072938" stroke-linecap="round" stroke-linejoin="round" stroke-width="8" d="M272.37 523.59l-8.7-15.25" mask="url(#mask-8)"/><polygon id="Fill-1555" fill="#F2F1F0" points="306.029 523.586 254.75 612.404 50.195 258.106 101.474 169.289 3.734 0 .339 0 .339 842 489.863 842" mask="url(#mask-8)"/></g><g id="Group-1559"><mask id="mask-10" fill="white"><use xlink:href="#path-9"/></mask><polygon id="Stroke-1557" stroke="#072938" stroke-linecap="round" stroke-linejoin="round" stroke-width="8" points="306.029 523.586 254.75 612.405 50.195 258.107 101.474 169.288 -3.764 -12.988 -3.764 846.103 492.232 846.103" mask="url(#mask-10)"/></g><g id="Group-1575" stroke="#072938" stroke-linecap="round" stroke-linejoin="round" stroke-width="8" transform="translate(335 45)"><path id="Stroke-1560" d="M138.92 362.64l-61.94-35.92"/><path id="Stroke-1562" d="M110.5 364l-29.87-17.32"/><polyline id="Stroke-1564" points="42.592 .305 94.182 89.661 60.004 89.661 18.248 17.34"/><polyline id="Stroke-1566" points="100.044 159.014 60.003 89.661 94.182 89.661 145.773 179.019"/><polyline id="Stroke-1568" points="102.566 44.983 154.157 134.34 119.978 134.34 68.387 44.983"/><polyline id="Stroke-1570" points="170.307 162.313 128.362 89.661 162.54 89.661"/><polyline id="Stroke-1572" points=".029 44.983 34.209 44.983 85.799 134.34 51.62 134.34"/></g></g></g></svg>