<svg xmlns="http://www.w3.org/2000/svg" viewBox="0 0 397 420"><g id="20a" fill="none" fill-rule="evenodd"><g transform="rotate(-90 210 205.5)"><g id="Group-1584" transform="translate(0 26)"><g id="Group-1580" transform="translate(312 217)"><polygon id="Fill-1577" fill="#ECF2F6" points=".182 49.45 .182 .222 98.631 .222 98.631 49.45"/><polygon id="Stroke-1579" stroke="#072938" stroke-linecap="round" stroke-linejoin="round" stroke-width="8" points=".182 49.45 .182 .222 98.631 .222 98.631 49.45"/></g><polygon id="Fill-1581" fill="#ECF2F6" points="220.9 335.169 385.658 168 220.9 .831 .368 .831 .368 335.169"/><polygon id="Stroke-1583" stroke="#072938" stroke-linecap="round" stroke-linejoin="round" stroke-width="8" points="220.9 335.169 385.658 168 220.9 .831 .368 .831 .368 335.169"/></g><g id="Group-1598" transform="translate(63)"><path id="Fill-1585" fill="#FFFFFF" d="M148.67 279.27c-47.1 27.18-107.3 11.05-134.5-36.04-27.18-47.1-11.05-107.3 36.04-134.5 47.1-27.18 107.3-11.05 134.5 36.04 27.18 47.1 11.05 107.3-36.04 134.5"/><path id="Stroke-1587" stroke="#329DE7" stroke-linecap="round" stroke-linejoin="round" stroke-width="8" d="M148.67 279.27c-47.1 27.18-107.3 11.05-134.5-36.04-27.18-47.1-11.05-107.3 36.04-134.5 47.1-27.18 107.3-11.05 134.5 36.04 27.18 47.1 11.05 107.3-36.04 134.5z"/><path id="Fill-1588" fill="#329DE7" d="M83.03 165.58a32.64 32.64 0 0 1 16.41-4.4v-49.22a81.63 81.63 0 0 0-41.02 10.99 81.63 81.63 0 0 0-30.02 30.03l42.62 24.61a32.65 32.65 0 0 1 12.01-12.01"/><path id="Stroke-1589" stroke="#329DE7" stroke-linecap="round" stroke-linejoin="round" stroke-width="8" d="M83.03 165.58a32.64 32.64 0 0 1 16.41-4.4v-49.22a81.63 81.63 0 0 0-41.02 10.99 81.63 81.63 0 0 0-30.02 30.03l42.62 24.61a32.65 32.65 0 0 1 12.01-12.01z"/><path id="Fill-1590" fill="#329DE7" d="M83.03 222.42a32.65 32.65 0 0 1-12-12.01L28.4 235a81.63 81.63 0 0 0 30.02 30.04 81.63 81.63 0 0 0 41.02 10.99V226.8c-5.58.01-11.23-1.4-16.4-4.39"/><path id="Stroke-1591" stroke="#329DE7" stroke-linecap="round" stroke-linejoin="round" stroke-width="8" d="M83.03 222.42a32.65 32.65 0 0 1-12-12.01L28.4 235a81.64 81.64 0 0 0 30.02 30.04 81.64 81.64 0 0 0 41.02 10.99V226.8c-5.58.01-11.23-1.4-16.4-4.39z"/><path id="Fill-1592" fill="#329DE7" d="M83.03 194a16.4 16.4 0 1 1 32.82 0 16.4 16.4 0 0 1-32.82 0"/><path id="Stroke-1593" stroke="#329DE7" stroke-linecap="round" stroke-linejoin="round" stroke-width="8" d="M83.03 194a16.4 16.4 0 1 1 32.82 0 16.4 16.4 0 0 1-32.82 0z"/><path id="Fill-1594" fill="#329DE7" d="M132.26 194c0 5.98-1.6 11.58-4.4 16.4l42.63 24.62a81.63 81.63 0 0 0 11-41.02 81.63 81.63 0 0 0-11-41.02l-42.63 24.61a32.64 32.64 0 0 1 4.4 16.41"/><path id="Stroke-1595" stroke="#329DE7" stroke-linecap="round" stroke-linejoin="round" stroke-width="8" d="M132.26 194c0 5.98-1.6 11.58-4.4 16.4l42.63 24.62a81.63 81.63 0 0 0 11-41.02 81.63 81.63 0 0 0-11-41.02l-42.63 24.61a32.64 32.64 0 0 1 4.4 16.41z"/><polygon id="Fill-1596" fill="#ECF2F6" points="153.797 387.834 347.632 194 153.797 .166 141.49 10.421 325.069 194 141.49 377.579"/><polygon id="Stroke-1597" stroke="#072938" stroke-linecap="round" stroke-linejoin="round" stroke-width="8" points="153.797 387.834 347.632 194 153.797 .165 141.49 10.421 325.069 194 141.49 377.579"/></g></g></g></svg>