<svg xmlns="http://www.w3.org/2000/svg" viewBox="0 0 397 420"><g id="21a" fill="none" fill-rule="evenodd"><g transform="rotate(-90 210 205.5)"><g id="Group-1634"><g id="Group-1628" transform="translate(312 243)"><polygon id="Fill-1625" fill="#ECF2F6" points=".182 49.45 .182 .222 98.631 .222 98.631 49.45"/><polygon id="Stroke-1627" stroke="#072938" stroke-linecap="round" stroke-linejoin="round" stroke-width="8" points=".182 49.45 .182 .222 98.631 .222 98.631 49.45"/></g><polygon id="Fill-1629" fill="#ECF2F6" points="220.9 361.169 385.658 194 220.9 26.831 .368 26.831 .368 361.169"/><polygon id="Stroke-1631" stroke="#072938" stroke-linecap="round" stroke-linejoin="round" stroke-width="8" points="220.9 361.169 385.658 194 220.9 26.831 .368 26.831 .368 361.169"/><polygon id="Fill-1632" fill="#ECF2F6" points="216.797 387.834 410.632 194 216.797 .166 204.49 10.421 388.069 194 204.49 377.579"/><polygon id="Stroke-1633" stroke="#072938" stroke-linecap="round" stroke-linejoin="round" stroke-width="8" points="216.797 387.834 410.632 194 216.797 .165 204.49 10.421 388.069 194 204.49 377.579"/></g><g id="Group-1638" transform="translate(63 169)"><path id="Fill-1635" fill="#FFFFFF" d="M34.78 48.36a24.68 24.68 0 0 0 9.17-6.44h137.54a16.4 16.4 0 0 0 0-32.82H43.95A24.62 24.62 0 0 0 4.98 38.95a24.71 24.71 0 0 0 29.8 9.4"/><path id="Stroke-1637" stroke="#329DE7" stroke-linecap="round" stroke-linejoin="round" stroke-width="8" d="M34.78 48.36a24.68 24.68 0 0 0 9.17-6.44h137.54a16.4 16.4 0 0 0 0-32.82H43.95A24.62 24.62 0 0 0 4.98 38.95a24.71 24.71 0 0 0 29.8 9.4z"/></g><g id="Group-1642" fill="#329DE7" font-family="OpenSans-Extrabold, Open Sans" font-size="38.97" font-weight="600" transform="rotate(90 -18 210.5)"><text id="19°C"><tspan x="0" y="42">19°C</tspan></text></g><g id="Group-1648" transform="translate(76 178)"><path id="Fill-1643" fill="#9D312F" d="M17.73 27.86a12.27 12.27 0 0 0 6.81-7.25h74.2a4.1 4.1 0 1 0 0-8.2h-74.2a11.19 11.19 0 0 0-5.89-6.56C14.63 3.84 9.81 3.8 6.08 6.3a12.31 12.31 0 0 0 11.65 21.56"/><path id="Stroke-1645" stroke="#329DE7" stroke-linecap="round" stroke-linejoin="round" stroke-width="8" d="M152.08.1v16.41"/><path id="Stroke-1646" stroke="#329DE7" stroke-linecap="round" stroke-linejoin="round" stroke-width="8" d="M135.67.1v8.2"/><path id="Stroke-1647" stroke="#329DE7" stroke-linecap="round" stroke-linejoin="round" stroke-width="8" d="M119.26.1v16.41"/></g></g></g></svg>