<svg xmlns="http://www.w3.org/2000/svg" viewBox="0 0 783 568"><g id="3b" fill="none" fill-rule="evenodd"><g transform="rotate(-90 281.5 282)"><g id="Group-547" fill="#ECF2F6" transform="translate(0 521)"><polygon id="Fill-544" points="42.36 258.24 42.36 158.833 .369 116.84 13.639 106.778 25.656 101.83 42.36 99.446 42.36 .04 247.629 .04 247.629 99.446 247.629 158.833 247.629 258.24"/></g><g id="Group-608"><path id="Stroke-548" stroke="#329DE7" stroke-dasharray="0 6.495" stroke-linecap="round" stroke-linejoin="round" stroke-width="2.5" d="M35.7 620.81A59.15 59.15 0 0 0 2.8 635.55"/><path id="Stroke-552" stroke="#329DE7" stroke-linecap="round" stroke-linejoin="round" stroke-width="8" d="M42.36 679.83l-42-41.99"/><polyline id="Stroke-554" stroke="#072938" stroke-linecap="round" stroke-linejoin="round" stroke-width="8" points="42.36 521.04 42.36 4.641 558.759 4.641 558.759 779.24 247.629 779.24"/><polygon id="Fill-556" fill="#FFFFFF" points="386.042 7.869 473.276 7.869 473.276 1.415 386.042 1.415"/><path id="Fill-558" fill="#072938" d="M473.92 8.51V.77H385.4V8.5h88.52zM386.7 7.22V2.06h85.94v5.16H386.7z"/><polygon id="Fill-559" fill="#FFFFFF" points="127.843 7.869 215.076 7.869 215.076 1.415 127.843 1.415"/><path id="Fill-560" fill="#072938" d="M215.72 8.51V.77H127.2V8.5h88.52zM128.5 7.22V2.06h85.94v5.16H128.5z"/><polygon id="Fill-561" fill="#FFFFFF" points="555.532 435.558 561.985 435.558 561.985 348.324 555.532 348.324"/><path id="Fill-562" fill="#072938" d="M562.63 436.2v-88.52h-7.74v88.52h7.74zm-6.45-1.29v-85.94h5.16v85.94h-5.16z"/><polygon id="Fill-563" fill="#FFFFFF" points="555.532 693.756 561.985 693.756 561.985 606.522 555.532 606.522"/><path id="Fill-564" fill="#072938" d="M562.63 694.4v-88.52h-7.74v88.52h7.74zm-6.45-1.29v-85.94h5.16v85.94h-5.16z"/><polygon id="Fill-565" fill="#FFFFFF" points="45.587 90.124 45.587 177.358 39.133 177.358 39.133 90.124"/><path id="Fill-566" fill="#072938" d="M46.23 178V89.48H38.5V178h7.74zm-6.45-1.29V90.77h5.16v85.94h-5.16z"/><polygon id="Fill-567" fill="#FFFFFF" points="45.587 348.324 45.587 435.558 39.133 435.558 39.133 348.324"/><path id="Fill-568" fill="#072938" d="M46.23 436.2v-88.52H38.5v88.52h7.74zm-6.45-1.29v-85.94h5.16v85.94h-5.16z"/><path id="Stroke-569" stroke="#072938" stroke-linecap="round" stroke-linejoin="round" stroke-width="2.5" d="M247.43 521.04H42.36"/><path id="Stroke-570" stroke="#072938" stroke-linecap="round" stroke-linejoin="round" stroke-width="2.5" d="M353.49 521.04v99.4"/><path id="Stroke-571" stroke="#072938" stroke-linecap="round" stroke-linejoin="round" stroke-width="2.5" d="M353.49 679.83v99.41"/><path id="Stroke-572" stroke="#072938" stroke-linecap="round" stroke-linejoin="round" stroke-width="2.5" d="M247.63 262.84v99.4"/><path id="Stroke-573" stroke="#072938" stroke-linecap="round" stroke-linejoin="round" stroke-width="2.5" d="M247.63 421.63v99.41"/><path id="Stroke-574" stroke="#072938" stroke-linecap="round" stroke-linejoin="round" stroke-width="2.5" d="M353.49 262.84v99.4"/><path id="Stroke-575" stroke="#072938" stroke-linecap="round" stroke-linejoin="round" stroke-width="2.5" d="M353.49 421.63v99.41"/><path id="Stroke-576" stroke="#072938" stroke-linecap="round" stroke-linejoin="round" stroke-width="2.5" d="M558.76 262.84h-228.5"/><path id="Stroke-577" stroke="#072938" stroke-linecap="round" stroke-linejoin="round" stroke-width="2.5" d="M270.87 262.84H42.36"/><path id="Stroke-578" stroke="#072938" stroke-linecap="round" stroke-linejoin="round" stroke-width="2.5" d="M558.56 521.04H353.5"/><path id="Stroke-579" stroke="#072938" stroke-linecap="round" stroke-linejoin="round" stroke-width="2.5" d="M247.63 521.04v258.2"/><path id="Fill-580" fill="#FFFFFF" d="M270.87 262.84a59.2 59.2 0 0 0 17.39 42"/><path id="Stroke-582" stroke="#072938" stroke-dasharray="0 6.495" stroke-linecap="round" stroke-linejoin="round" stroke-width="2.5" d="M271.24 269.5a59.16 59.16 0 0 0 14.73 32.91"/><path id="Stroke-584" stroke="#072938" stroke-linecap="round" stroke-linejoin="round" stroke-width="2.5" d="M330.25 262.84l-41.99 42"/><path id="Stroke-586" stroke="#072938" stroke-dasharray="0 6.495" stroke-linecap="round" stroke-linejoin="round" stroke-width="2.5" d="M360.14 421.26a59.15 59.15 0 0 0 32.92-14.73"/><path id="Stroke-588" stroke="#072938" stroke-linecap="round" stroke-linejoin="round" stroke-width="2.5" d="M353.49 362.25l42 41.99"/><path id="Stroke-590" stroke="#072938" stroke-dasharray="0 6.495" stroke-linecap="round" stroke-linejoin="round" stroke-width="2.5" d="M240.98 421.26a59.15 59.15 0 0 1-32.92-14.73"/><path id="Stroke-592" stroke="#072938" stroke-linecap="round" stroke-linejoin="round" stroke-width="2.5" d="M247.63 362.25l-42 41.99"/><path id="Stroke-594" stroke="#072938" stroke-dasharray="0 6.495" stroke-linecap="round" stroke-linejoin="round" stroke-width="2.5" d="M360.14 679.46a59.15 59.15 0 0 0 32.92-14.73"/><path id="Stroke-596" stroke="#072938" stroke-linecap="round" stroke-linejoin="round" stroke-width="2.5" d="M353.49 620.45l42 41.99"/><polygon id="Stroke-597" stroke="#072938" stroke-linecap="round" stroke-linejoin="round" stroke-width="2.5" points="558.759 173.769 558.759 155.956 465.815 155.956 465.815 173.769"/><polygon id="Stroke-598" stroke="#072938" stroke-linecap="round" stroke-linejoin="round" stroke-width="2.5" points="558.759 155.955 558.759 138.141 465.815 138.141 465.815 155.955"/><polygon id="Stroke-599" stroke="#072938" stroke-linecap="round" stroke-linejoin="round" stroke-width="2.5" points="558.759 138.141 558.759 120.326 465.815 120.326 465.815 138.141"/><polygon id="Stroke-600" stroke="#072938" stroke-linecap="round" stroke-linejoin="round" stroke-width="2.5" points="558.759 262.841 558.759 245.027 465.815 245.027 465.815 262.841"/><polygon id="Stroke-601" stroke="#072938" stroke-linecap="round" stroke-linejoin="round" stroke-width="2.5" points="558.759 245.027 558.759 227.212 465.815 227.212 465.815 245.027"/><polygon id="Stroke-602" stroke="#072938" stroke-linecap="round" stroke-linejoin="round" stroke-width="2.5" points="558.759 227.212 558.759 209.398 465.815 209.398 465.815 227.212"/><polygon id="Stroke-603" stroke="#072938" stroke-linecap="round" stroke-linejoin="round" stroke-width="2.5" points="558.759 209.398 558.759 191.584 465.815 191.584 465.815 209.398"/><polygon id="Stroke-604" stroke="#072938" stroke-linecap="round" stroke-linejoin="round" stroke-width="2.5" points="558.759 191.584 558.759 173.769 465.815 173.769 465.815 191.584"/><polyline id="Stroke-605" stroke="#329DE7" stroke-linecap="round" stroke-linejoin="round" stroke-width="8" points="42.36 620.446 42.36 521.04 247.629 521.04 247.629 779.24 42.36 779.24 42.36 679.833"/><polygon id="Fill-606" fill="#FFFFFF" points="112.996 782.468 200.23 782.468 200.23 776.012 112.996 776.012"/><path id="Fill-607" fill="#329DE7" d="M200.88 783.11v-7.74h-88.53v7.74h88.53zm-87.24-1.29v-5.16h85.95v5.16h-85.95z"/></g></g></g></svg>